<svg width="39" height="27" viewBox="0 0 39 27" fill="none" xmlns="http://www.w3.org/2000/svg">
<path d="M37.4875 4.7569C37.2767 3.96265 36.8608 3.23772 36.2817 2.65471C35.7025 2.0717 34.9804 1.65106 34.1875 1.4349C31.2765 0.649902 19.6015 0.649902 19.6015 0.649902C19.6015 0.649902 7.92755 0.649902 5.01555 1.4349C4.22271 1.65106 3.50057 2.0717 2.92142 2.65471C2.34227 3.23772 1.92643 3.96265 1.71555 4.7569C0.935547 7.6869 0.935547 13.8009 0.935547 13.8009C0.935547 13.8009 0.935547 19.9149 1.71555 22.8449C1.92773 23.6325 2.34464 24.35 2.92389 24.9243C3.50315 25.4987 4.22412 25.9094 5.01355 26.1149C7.92655 26.8999 19.6005 26.8999 19.6005 26.8999C19.6005 26.8999 31.2755 26.8999 34.1865 26.1149C34.9762 25.9098 35.6975 25.4994 36.2771 24.9252C36.8568 24.351 37.274 23.6336 37.4865 22.8459C38.2665 19.9159 38.2665 13.8019 38.2665 13.8019C38.2665 13.8019 38.2675 7.6879 37.4875 4.7569ZM15.7875 19.3569V8.2569L25.5405 13.7999L15.7875 19.3569Z" fill="#FADD37"/>
</svg>
