<svg width="35" height="35" viewBox="0 0 35 35" fill="none" xmlns="http://www.w3.org/2000/svg">
<path d="M34.3669 17.7748C34.3673 15.5484 33.9291 13.3437 33.0773 11.2867C32.2254 9.22967 30.9767 7.36063 29.4024 5.78632C27.8281 4.21201 25.959 2.96327 23.902 2.11144C21.845 1.25962 19.6403 0.821384 17.4139 0.821778C15.1875 0.821384 12.9829 1.25962 10.9258 2.11144C8.86883 2.96327 6.99979 4.21201 5.42548 5.78632C3.85117 7.36063 2.60243 9.22967 1.75061 11.2867C0.898777 13.3437 0.460544 15.5484 0.460938 17.7748C0.461235 21.8115 1.90143 25.7157 4.52264 28.7857C7.14384 31.8556 10.7741 33.8899 14.7609 34.5228V22.6758H10.4579V17.7758H14.7649V14.0398C14.7649 9.79078 17.2939 7.43978 21.1649 7.43978C22.438 7.45726 23.708 7.56788 24.9649 7.77078V11.9408H22.8249C22.4607 11.8925 22.0902 11.9268 21.741 12.0411C21.3918 12.1554 21.0728 12.3467 20.8076 12.601C20.5424 12.8553 20.3377 13.166 20.2088 13.5101C20.0799 13.8541 20.0301 14.2228 20.0629 14.5888V17.7708H24.7629L24.0109 22.6708H20.0609V34.5228C24.0488 33.8912 27.6805 31.8574 30.303 28.7874C32.9254 25.7173 34.3664 21.8124 34.3669 17.7748Z" fill="#FADD37"/>
</svg>
