<svg width="32" height="32" viewBox="0 0 32 32" fill="none" xmlns="http://www.w3.org/2000/svg">
<path d="M29.3511 0.462891H3.09508C2.51351 0.46791 1.95759 0.703007 1.54889 1.11677C1.14018 1.53054 0.911941 2.08931 0.914077 2.67089V28.8799C0.912206 29.4613 1.14056 30.0198 1.54924 30.4334C1.95792 30.8469 2.51369 31.0819 3.09508 31.0869H29.3511C29.9337 31.0837 30.4912 30.8496 30.9014 30.4358C31.3116 30.0221 31.5409 29.4625 31.5391 28.8799V2.67089C31.5412 2.0881 31.312 1.52828 30.9018 1.11432C30.4916 0.700351 29.9339 0.466066 29.3511 0.462891ZM10.1701 26.7129H5.63108V12.0999H10.1771V26.7129H10.1701ZM7.90008 10.0999C7.20211 10.0996 6.5328 9.82224 6.03927 9.3287C5.54573 8.83517 5.26834 8.16586 5.26808 7.46789C5.26834 6.76992 5.54573 6.10062 6.03927 5.60708C6.5328 5.11354 7.20211 4.83616 7.90008 4.83589C8.59772 4.83721 9.26641 5.11494 9.75972 5.60825C10.253 6.10156 10.5308 6.77025 10.5321 7.46789C10.5325 7.81364 10.4647 8.15607 10.3325 8.47558C10.2004 8.79509 10.0065 9.08539 9.76206 9.32988C9.51758 9.57436 9.22727 9.76822 8.90777 9.90035C8.58826 10.0325 8.24583 10.1003 7.90008 10.0999ZM27.1841 26.7129H22.6451V19.5999C22.6451 17.8999 22.6111 15.7239 20.2871 15.7239C17.9221 15.7239 17.5591 17.5699 17.5591 19.4769V26.7089H13.0201V12.0999H17.3741V14.0999H17.4361C17.8731 13.3552 18.5036 12.7427 19.2607 12.3276C20.0178 11.9124 20.8732 11.71 21.7361 11.7419C26.3301 11.7419 27.1841 14.7699 27.1841 18.7079V26.7129Z" fill="#FADD37"/>
</svg>
