<svg width="17" height="37" viewBox="0 0 17 37" fill="none" xmlns="http://www.w3.org/2000/svg">
<path d="M11 0H6C2.68629 0 0 2.68629 0 6V22C0 25.3137 2.68629 28 6 28H11C14.3137 28 17 25.3137 17 22V6C17 2.68629 14.3137 0 11 0Z" fill="white"/>
<path d="M11 0.5H6C2.96243 0.5 0.5 2.96243 0.5 6V22C0.5 25.0376 2.96243 27.5 6 27.5H11C14.0376 27.5 16.5 25.0376 16.5 22V6C16.5 2.96243 14.0376 0.5 11 0.5Z" stroke="#2F2F2F"/>
<path d="M8.5 6.5V13.5" stroke="#2F2F2F" stroke-linecap="round"/>
<path d="M4.90039 32.2998L8.50098 35.8999L12.1006 32.2998" stroke="#2F2F2F"/>
</svg>
