<svg width="90" height="80" viewBox="0 0 90 80" fill="none" xmlns="http://www.w3.org/2000/svg">
<path d="M57.5 2.5C61.5625 2.5 65 5.9375 65 10V30C65 30.9375 64.8438 31.7188 64.5312 32.5H67.1875C67.3438 31.7188 67.5 30.9375 67.5 30V10C67.5 4.53125 62.9688 0 57.5 0H50H40H32.5C26.875 0 22.5 4.53125 22.5 10V30C22.5 30.9375 22.5 31.7188 22.8125 32.5H25.3125C25 31.7188 25 30.9375 25 30V10C25 5.9375 28.2812 2.5 32.5 2.5H37.5V12.5C37.5 15.3125 39.6875 17.5 42.5 17.5H47.5C50.1562 17.5 52.5 15.3125 52.5 12.5V2.5H57.5ZM40 2.5H50V12.5C50 13.9062 48.75 15 47.5 15H42.5C41.0938 15 40 13.9062 40 12.5V2.5ZM48.125 77.3438C49.8438 79.0625 52.3438 80 55 80H80C85.4688 80 90 75.625 90 70V47.5C90 42.0312 85.4688 37.5 80 37.5H75H72.5H62.5H60H55C51.7188 37.5 48.9062 39.0625 47.1875 41.25C47.6562 42.0312 48.125 42.8125 48.4375 43.75C49.8438 41.5625 52.1875 40 55 40H60V50C60 52.8125 62.1875 55 65 55H70C72.6562 55 75 52.8125 75 50V40H80C84.0625 40 87.5 43.4375 87.5 47.5V70C87.5 74.2188 84.0625 77.5 80 77.5H55C52.6562 77.5 50.4688 76.5625 49.2188 74.8438C48.9062 75.7812 48.4375 76.5625 48.125 77.3438ZM62.5 40H72.5V50C72.5 51.4062 71.25 52.5 70 52.5H65C63.5938 52.5 62.5 51.4062 62.5 50V40ZM42.5 47.5V70C42.5 74.2188 39.0625 77.5 35 77.5H10C5.78125 77.5 2.5 74.2188 2.5 70V47.5C2.5 43.4375 5.78125 40 10 40H15V50C15 52.8125 17.1875 55 20 55H25C27.6562 55 30 52.8125 30 50V40H35C39.0625 40 42.5 43.4375 42.5 47.5ZM17.5 50V40H27.5V50C27.5 51.4062 26.25 52.5 25 52.5H20C18.5938 52.5 17.5 51.4062 17.5 50ZM35 37.5H30H27.5H17.5H15H10C4.375 37.5 0 42.0312 0 47.5V70C0 75.625 4.375 80 10 80H35C40.4688 80 45 75.625 45 70V47.5C45 42.0312 40.4688 37.5 35 37.5Z" fill="#2F2F2F"/>
</svg>
