<svg width="24" height="21" viewBox="0 0 24 21" fill="none" xmlns="http://www.w3.org/2000/svg">
<path d="M20.75 3.07812C20.3984 1.75 19.0312 0.929688 17.7031 1.32031L17.1172 1.47656C16.7656 1.55469 16.5703 1.90625 16.6484 2.21875L19.2656 11.9062C19.3438 12.2188 19.6953 12.4141 20.0078 12.3359L20.6328 12.1797C21.9609 11.8281 22.7422 10.4609 22.3906 9.09375L20.75 3.07812ZM17.5469 0.695312C19.2266 0.265625 20.9062 1.24219 21.375 2.92188L22.9766 8.9375C23.4453 10.6172 22.4297 12.3359 20.7891 12.7656L20.1641 12.9219C19.5 13.1172 18.8359 12.7266 18.6406 12.0625L17.4688 7.6875L3.875 11.2031V19.875H5.82812L8.64062 11.6328L9.34375 11.4766L8.40625 14.25H14.3047L13.0547 10.5L13.6406 10.3438L16.8828 19.875H22.9375C23.0938 19.875 23.25 20.0312 23.25 20.1875C23.25 20.3828 23.0938 20.5 22.9375 20.5H3.5625H1.0625C0.867188 20.5 0.75 20.3828 0.75 20.1875C0.75 20.0312 0.867188 19.875 1.0625 19.875H3.25V7.0625C3.25 6.90625 3.36719 6.75 3.5625 6.75C3.71875 6.75 3.875 6.90625 3.875 7.0625V10.5781L9.5 9.13281L11.0625 4.48438C11.1016 4.36719 11.2188 4.28906 11.375 4.28906C11.4922 4.28906 11.6094 4.36719 11.6484 4.48438L12.9375 8.23438L17.3125 7.10156L16.0625 2.375C15.8672 1.71094 16.2578 1.04688 16.9219 0.851562L17.5469 0.695312ZM12.3125 8.39062L11.375 5.53906L10.2031 8.9375L12.3125 8.39062ZM16.2188 19.875L14.5391 14.875H8.17188L6.49219 19.875H16.2188Z" fill="#2F2F2F"/>
</svg>
