<svg width="26" height="21" viewBox="0 0 26 21" fill="none" xmlns="http://www.w3.org/2000/svg">
<path d="M0.8125 0.5C0.96875 0.5 1.125 0.65625 1.125 0.8125V7.375H24.875V0.8125C24.875 0.65625 24.9922 0.5 25.1875 0.5C25.3438 0.5 25.5 0.65625 25.5 0.8125V7.6875V17.6875V20.1875C25.5 20.3828 25.3438 20.5 25.1875 20.5C24.9922 20.5 24.875 20.3828 24.875 20.1875V18H1.125V20.1875C1.125 20.3828 0.96875 20.5 0.8125 20.5C0.617188 20.5 0.5 20.3828 0.5 20.1875V17.6875V7.6875V0.8125C0.5 0.65625 0.617188 0.5 0.8125 0.5ZM1.125 17.375H24.875V8H1.125V17.375ZM18 1.125H15.5C15.1484 1.125 14.875 1.4375 14.875 1.75V4.25C14.875 4.60156 15.1484 4.875 15.5 4.875H18C18.3125 4.875 18.625 4.60156 18.625 4.25V1.75C18.625 1.4375 18.3125 1.125 18 1.125ZM15.5 0.5H18C18.6641 0.5 19.25 1.08594 19.25 1.75V4.25C19.25 4.95312 18.6641 5.5 18 5.5H15.5C14.7969 5.5 14.25 4.95312 14.25 4.25V1.75C14.25 1.08594 14.7969 0.5 15.5 0.5ZM5.5 11.125C5.14844 11.125 4.875 11.4375 4.875 11.75V14.25C4.875 14.6016 5.14844 14.875 5.5 14.875H8C8.3125 14.875 8.625 14.6016 8.625 14.25V11.75C8.625 11.4375 8.3125 11.125 8 11.125H5.5ZM4.25 11.75C4.25 11.0859 4.79688 10.5 5.5 10.5H8C8.66406 10.5 9.25 11.0859 9.25 11.75V14.25C9.25 14.9531 8.66406 15.5 8 15.5H5.5C4.79688 15.5 4.25 14.9531 4.25 14.25V11.75ZM11.75 11.125C11.3984 11.125 11.125 11.4375 11.125 11.75V14.25C11.125 14.6016 11.3984 14.875 11.75 14.875H14.25C14.5625 14.875 14.875 14.6016 14.875 14.25V11.75C14.875 11.4375 14.5625 11.125 14.25 11.125H11.75ZM10.5 11.75C10.5 11.0859 11.0469 10.5 11.75 10.5H14.25C14.9141 10.5 15.5 11.0859 15.5 11.75V14.25C15.5 14.9531 14.9141 15.5 14.25 15.5H11.75C11.0469 15.5 10.5 14.9531 10.5 14.25V11.75Z" fill="#2F2F2F"/>
</svg>
