<svg width="18" height="20" viewBox="0 0 18 20" fill="none" xmlns="http://www.w3.org/2000/svg">
<path d="M9 0.75C5.52344 0.75 2.75 3.5625 2.75 7V7.625C2.75 7.82031 2.59375 7.9375 2.4375 7.9375C2.24219 7.9375 2.125 7.82031 2.125 7.625V7C2.125 3.21094 5.17188 0.125 9 0.125C12.7891 0.125 15.875 3.21094 15.875 7V7.9375C15.875 10.2031 14.0391 12 11.8125 12H9.625H9H8.375C7.67188 12 7.125 11.4531 7.125 10.75C7.125 10.0859 7.67188 9.5 8.375 9.5H9.625C10.2891 9.5 10.875 10.0859 10.875 10.75C10.875 10.9844 10.7969 11.2188 10.6797 11.375H11.8125C13.6875 11.375 15.25 9.85156 15.25 7.9375V7C15.25 3.5625 12.4375 0.75 9 0.75ZM10.25 10.75C10.25 10.4375 9.9375 10.125 9.625 10.125H8.375C8.02344 10.125 7.75 10.4375 7.75 10.75C7.75 11.1016 8.02344 11.375 8.375 11.375H9H9.625C9.9375 11.375 10.25 11.1016 10.25 10.75ZM14 7C14 8.01562 13.6875 8.95312 13.1797 9.73438C12.9062 9.89062 12.5547 9.96875 12.2031 9.96875C12.9062 9.1875 13.375 8.17188 13.375 7C13.375 4.61719 11.3828 2.625 9 2.625C6.57812 2.625 4.625 4.61719 4.625 7C4.625 8.25 5.13281 9.34375 5.91406 10.1641C5.875 10.3594 5.875 10.5547 5.875 10.75C5.875 10.8281 5.875 10.8672 5.875 10.9062C4.70312 10.0078 4 8.60156 4 7C4 4.26562 6.22656 2 9 2C11.7344 2 14 4.26562 14 7ZM8.375 13.25H9.625H12.4766C15.3672 13.25 17.75 15.6328 17.75 18.5234C17.75 19.0703 17.2812 19.5 16.7344 19.5H1.22656C0.679688 19.5 0.25 19.0703 0.25 18.5234C0.25 15.6328 2.59375 13.25 5.48438 13.25H8.375ZM0.875 18.5234C0.875 18.7188 1.03125 18.875 1.22656 18.875H16.7344C16.9297 18.875 17.125 18.7188 17.125 18.5234C17.125 15.9453 15.0547 13.875 12.4766 13.875H5.48438C2.94531 13.875 0.875 15.9453 0.875 18.5234Z" fill="#2F2F2F"/>
</svg>
