<svg width="91" height="81" viewBox="0 0 91 81" fill="none" xmlns="http://www.w3.org/2000/svg">
<path d="M80 11.3125C78.5938 6 73.125 2.71875 67.8125 4.28125L65.4688 4.90625C64.0625 5.21875 63.2812 6.625 63.5938 7.875L74.0625 46.625C74.375 47.875 75.7812 48.6562 77.0312 48.3438L79.5312 47.7188C84.8438 46.3125 87.9688 40.8438 86.5625 35.375L80 11.3125ZM67.1875 1.78125C73.9062 0.0625 80.625 3.96875 82.5 10.6875L88.9062 34.75C90.7812 41.4688 86.7188 48.3438 80.1562 50.0625L77.6562 50.6875C75 51.4688 72.3438 49.9062 71.5625 47.25L66.875 29.75L12.5 43.8125V78.5H20.3125L31.5625 45.5312L34.375 44.9062L30.625 56H54.2188L49.2188 41L51.5625 40.375L64.5312 78.5H88.75C89.375 78.5 90 79.125 90 79.75C90 80.5312 89.375 81 88.75 81H11.25H1.25C0.46875 81 0 80.5312 0 79.75C0 79.125 0.46875 78.5 1.25 78.5H10V27.25C10 26.625 10.4688 26 11.25 26C11.875 26 12.5 26.625 12.5 27.25V41.3125L35 35.5312L41.25 16.9375C41.4062 16.4688 41.875 16.1562 42.5 16.1562C42.9688 16.1562 43.4375 16.4688 43.5938 16.9375L48.75 31.9375L66.25 27.4062L61.25 8.5C60.4688 5.84375 62.0312 3.1875 64.6875 2.40625L67.1875 1.78125ZM46.25 32.5625L42.5 21.1562L37.8125 34.75L46.25 32.5625ZM61.875 78.5L55.1562 58.5H29.6875L22.9688 78.5H61.875Z" fill="#2F2F2F"/>
</svg>
