<svg width="16" height="21" viewBox="0 0 16 21" fill="none" xmlns="http://www.w3.org/2000/svg">
<path d="M11.3203 0.773438C11.5156 0.617188 11.75 0.5 11.9844 0.5C12.6875 0.5 13.1562 1.24219 12.8828 1.86719L9.71875 9.25H14.5234C15.0703 9.25 15.5 9.67969 15.5 10.2266C15.5 10.5 15.3828 10.7734 15.1484 10.9297L4.64062 20.2656C4.44531 20.4219 4.21094 20.5 3.97656 20.5C3.27344 20.5 2.80469 19.7969 3.07812 19.1719L6.24219 11.75H1.39844C0.890625 11.75 0.5 11.3594 0.5 10.8516C0.5 10.5781 0.578125 10.3438 0.773438 10.1875L11.3203 0.773438ZM11.9844 1.125C11.9062 1.125 11.8281 1.16406 11.75 1.24219L1.20312 10.6562C1.125 10.6953 1.125 10.7734 1.125 10.8516C1.125 11.0078 1.24219 11.125 1.39844 11.125H6.75C6.82812 11.125 6.94531 11.2031 6.98438 11.2812C7.0625 11.3594 7.0625 11.4766 7.02344 11.5938L3.66406 19.4062C3.54688 19.6406 3.74219 19.875 3.97656 19.875C4.05469 19.875 4.13281 19.875 4.21094 19.7969L14.7578 10.4609C14.7969 10.4219 14.875 10.3047 14.875 10.2266C14.875 10.0312 14.7188 9.875 14.5234 9.875H9.25C9.13281 9.875 9.01562 9.83594 8.97656 9.75781C8.89844 9.67969 8.89844 9.5625 8.9375 9.44531L12.2969 1.63281C12.4141 1.39844 12.2188 1.125 11.9844 1.125Z" fill="#2F2F2F"/>
</svg>
