<svg width="26" height="21" viewBox="0 0 26 21" fill="none" xmlns="http://www.w3.org/2000/svg">
<path d="M6.125 2.0625C6.125 1.55469 6.51562 1.125 7.0625 1.125H10.9688C11.3203 1.125 11.6328 1.32031 11.7891 1.63281L15.8125 9.40625C15.8906 9.5625 16.0859 9.64062 16.2422 9.5625C16.3984 9.44531 16.4766 9.28906 16.3984 9.13281L12.375 1.35938C12.1016 0.851562 11.5547 0.5 10.9688 0.5H7.0625C6.16406 0.5 5.5 1.20312 5.5 2.0625V5.5C5.5 5.69531 5.61719 5.8125 5.8125 5.8125C5.96875 5.8125 6.125 5.69531 6.125 5.5V2.0625ZM4.25 13.625C5.34375 13.625 6.35938 14.25 6.94531 15.1875C7.49219 16.1641 7.49219 17.375 6.94531 18.3125C6.35938 19.2891 5.34375 19.875 4.25 19.875C3.11719 19.875 2.10156 19.2891 1.51562 18.3125C0.96875 17.375 0.96875 16.1641 1.51562 15.1875C2.10156 14.25 3.11719 13.625 4.25 13.625ZM4.25 20.5C6.32031 20.5 8 18.8203 8 16.75H10.5C10.5 18.8203 12.1797 20.5 14.25 20.5C16.3203 20.5 18 18.8203 18 16.75C18 15.6562 17.4922 14.6406 16.75 13.9766V12.0625C16.75 11.2031 16.0469 10.5 15.1875 10.5H10.8125L6.71094 7.25781C6.32031 6.94531 5.85156 6.75 5.34375 6.75H3C1.59375 6.75 0.5 7.88281 0.5 9.25V16.125V16.75C0.5 18.8203 2.17969 20.5 4.25 20.5ZM4.25 13C2.92188 13 1.78906 13.6641 1.125 14.6797V9.25C1.125 8.23438 1.94531 7.375 3 7.375H5.34375C5.69531 7.375 6.04688 7.53125 6.32031 7.72656L10.4219 11.0078C10.5 11.0859 10.6562 11.125 10.8125 11.125H15.1875C15.6953 11.125 16.125 11.5547 16.125 12.0625V13.5078C15.5391 13.1953 14.9141 13 14.25 13C12.375 13 10.8125 14.3672 10.5391 16.125H7.92188C7.64844 14.3672 6.08594 13 4.25 13ZM14.25 13.625C15.3438 13.625 16.3594 14.25 16.9453 15.1875C17.4922 16.1641 17.4922 17.375 16.9453 18.3125C16.3594 19.2891 15.3438 19.875 14.25 19.875C13.1172 19.875 12.1016 19.2891 11.5156 18.3125C10.9688 17.375 10.9688 16.1641 11.5156 15.1875C12.1016 14.25 13.1172 13.625 14.25 13.625ZM19.875 0.8125C19.875 0.65625 19.7188 0.5 19.5625 0.5C19.3672 0.5 19.25 0.65625 19.25 0.8125V17.6875C19.25 17.8828 19.3672 18 19.5625 18H25.1875C25.3438 18 25.5 17.8828 25.5 17.6875C25.5 17.5312 25.3438 17.375 25.1875 17.375H19.875V0.8125Z" fill="#2F2F2F"/>
</svg>
