<svg width="100" height="80" viewBox="0 0 100 80" fill="none" xmlns="http://www.w3.org/2000/svg">
<path d="M22.5 6.25C22.5 4.21875 24.0625 2.5 26.25 2.5H41.875C43.2812 2.5 44.5312 3.28125 45.1562 4.53125L61.25 35.625C61.5625 36.25 62.3438 36.5625 62.9688 36.25C63.5938 35.7812 63.9062 35.1562 63.5938 34.5312L47.5 3.4375C46.4062 1.40625 44.2188 0 41.875 0H26.25C22.6562 0 20 2.8125 20 6.25V20C20 20.7812 20.4688 21.25 21.25 21.25C21.875 21.25 22.5 20.7812 22.5 20V6.25ZM15 52.5C19.375 52.5 23.4375 55 25.7812 58.75C27.9688 62.6562 27.9688 67.5 25.7812 71.25C23.4375 75.1562 19.375 77.5 15 77.5C10.4688 77.5 6.40625 75.1562 4.0625 71.25C1.875 67.5 1.875 62.6562 4.0625 58.75C6.40625 55 10.4688 52.5 15 52.5ZM15 80C23.2812 80 30 73.2812 30 65H40C40 73.2812 46.7188 80 55 80C63.2812 80 70 73.2812 70 65C70 60.625 67.9688 56.5625 65 53.9062V46.25C65 42.8125 62.1875 40 58.75 40H41.25L24.8438 27.0312C23.2812 25.7812 21.4062 25 19.375 25H10C4.375 25 0 29.5312 0 35V62.5V65C0 73.2812 6.71875 80 15 80ZM15 50C9.6875 50 5.15625 52.6562 2.5 56.7188V35C2.5 30.9375 5.78125 27.5 10 27.5H19.375C20.7812 27.5 22.1875 28.125 23.2812 28.9062L39.6875 42.0312C40 42.3438 40.625 42.5 41.25 42.5H58.75C60.7812 42.5 62.5 44.2188 62.5 46.25V52.0312C60.1562 50.7812 57.6562 50 55 50C47.5 50 41.25 55.4688 40.1562 62.5H29.6875C28.5938 55.4688 22.3438 50 15 50ZM55 52.5C59.375 52.5 63.4375 55 65.7812 58.75C67.9688 62.6562 67.9688 67.5 65.7812 71.25C63.4375 75.1562 59.375 77.5 55 77.5C50.4688 77.5 46.4062 75.1562 44.0625 71.25C41.875 67.5 41.875 62.6562 44.0625 58.75C46.4062 55 50.4688 52.5 55 52.5ZM77.5 1.25C77.5 0.625 76.875 0 76.25 0C75.4688 0 75 0.625 75 1.25V68.75C75 69.5312 75.4688 70 76.25 70H98.75C99.375 70 100 69.5312 100 68.75C100 68.125 99.375 67.5 98.75 67.5H77.5V1.25Z" fill="#2F2F2F"/>
</svg>
