<svg width="24" height="21" viewBox="0 0 24 21" fill="none" xmlns="http://www.w3.org/2000/svg">
<path d="M15.125 1.125C16.1406 1.125 17 1.98438 17 3V8C17 8.23438 16.9609 8.42969 16.8828 8.625H17.5469C17.5859 8.42969 17.625 8.23438 17.625 8V3C17.625 1.63281 16.4922 0.5 15.125 0.5H13.25H10.75H8.875C7.46875 0.5 6.375 1.63281 6.375 3V8C6.375 8.23438 6.375 8.42969 6.45312 8.625H7.07812C7 8.42969 7 8.23438 7 8V3C7 1.98438 7.82031 1.125 8.875 1.125H10.125V3.625C10.125 4.32812 10.6719 4.875 11.375 4.875H12.625C13.2891 4.875 13.875 4.32812 13.875 3.625V1.125H15.125ZM10.75 1.125H13.25V3.625C13.25 3.97656 12.9375 4.25 12.625 4.25H11.375C11.0234 4.25 10.75 3.97656 10.75 3.625V1.125ZM12.7812 19.8359C13.2109 20.2656 13.8359 20.5 14.5 20.5H20.75C22.1172 20.5 23.25 19.4062 23.25 18V12.375C23.25 11.0078 22.1172 9.875 20.75 9.875H19.5H18.875H16.375H15.75H14.5C13.6797 9.875 12.9766 10.2656 12.5469 10.8125C12.6641 11.0078 12.7812 11.2031 12.8594 11.4375C13.2109 10.8906 13.7969 10.5 14.5 10.5H15.75V13C15.75 13.7031 16.2969 14.25 17 14.25H18.25C18.9141 14.25 19.5 13.7031 19.5 13V10.5H20.75C21.7656 10.5 22.625 11.3594 22.625 12.375V18C22.625 19.0547 21.7656 19.875 20.75 19.875H14.5C13.9141 19.875 13.3672 19.6406 13.0547 19.2109C12.9766 19.4453 12.8594 19.6406 12.7812 19.8359ZM16.375 10.5H18.875V13C18.875 13.3516 18.5625 13.625 18.25 13.625H17C16.6484 13.625 16.375 13.3516 16.375 13V10.5ZM11.375 12.375V18C11.375 19.0547 10.5156 19.875 9.5 19.875H3.25C2.19531 19.875 1.375 19.0547 1.375 18V12.375C1.375 11.3594 2.19531 10.5 3.25 10.5H4.5V13C4.5 13.7031 5.04688 14.25 5.75 14.25H7C7.66406 14.25 8.25 13.7031 8.25 13V10.5H9.5C10.5156 10.5 11.375 11.3594 11.375 12.375ZM5.125 13V10.5H7.625V13C7.625 13.3516 7.3125 13.625 7 13.625H5.75C5.39844 13.625 5.125 13.3516 5.125 13ZM9.5 9.875H8.25H7.625H5.125H4.5H3.25C1.84375 9.875 0.75 11.0078 0.75 12.375V18C0.75 19.4062 1.84375 20.5 3.25 20.5H9.5C10.8672 20.5 12 19.4062 12 18V12.375C12 11.0078 10.8672 9.875 9.5 9.875Z" fill="#2F2F2F"/>
</svg>
