<svg width="18" height="17" viewBox="0 0 18 17" fill="none" xmlns="http://www.w3.org/2000/svg">
<path d="M12.9453 1.23438C13.0625 1.11719 13.0625 0.921875 12.9453 0.804688C12.8281 0.6875 12.6328 0.6875 12.5156 0.804688L6.5 6.82031L3.57031 3.92969C3.45312 3.8125 3.25781 3.8125 3.14062 3.92969C3.02344 4.04688 3.02344 4.24219 3.14062 4.35938L6.26562 7.48438C6.38281 7.60156 6.57812 7.60156 6.69531 7.48438L12.9453 1.23438ZM17.3203 5.60938C17.4375 5.49219 17.4375 5.29688 17.3203 5.17969C17.2031 5.0625 17.0078 5.0625 16.8906 5.17969L6.5 15.5703L1.07031 10.1797C0.953125 10.0625 0.757812 10.0625 0.640625 10.1797C0.523438 10.2969 0.523438 10.4922 0.640625 10.6094L6.26562 16.2344C6.38281 16.3516 6.57812 16.3516 6.69531 16.2344L17.3203 5.60938Z" fill="#2F2F2F"/>
</svg>
