<svg width="35" height="27" viewBox="0 0 35 27" fill="none" xmlns="http://www.w3.org/2000/svg">
<path d="M4.375 1.84375C2.5293 1.84375 1.09375 3.34766 1.09375 5.125V7.10742L15.0391 18.3867C16.4746 19.4805 18.457 19.4805 19.8926 18.3867L33.9062 7.10742V5.125C33.9062 3.34766 32.4023 1.84375 30.625 1.84375H4.375ZM1.09375 8.47461V22.625C1.09375 24.4707 2.5293 25.9062 4.375 25.9062H30.625C32.4023 25.9062 33.9062 24.4707 33.9062 22.625V8.47461L20.5762 19.207C18.7305 20.7109 16.2012 20.7109 14.3555 19.207L1.09375 8.47461ZM0 5.125C0 2.73242 1.91406 0.75 4.375 0.75H30.625C33.0176 0.75 35 2.73242 35 5.125V22.625C35 25.0859 33.0176 27 30.625 27H4.375C1.91406 27 0 25.0859 0 22.625V5.125Z" fill="#2F2F2F"/>
</svg>
