<svg width="36" height="36" viewBox="0 0 36 36" fill="none" xmlns="http://www.w3.org/2000/svg">
<path d="M21.6699 26.2832C21.3281 26.625 20.7812 26.7617 20.3027 26.5566C15.3125 24.1641 11.2109 20.0625 8.81836 15.0723C8.61328 14.5938 8.75 14.0469 9.0918 13.7051L12.5098 10.9707C13.0566 10.4922 13.2617 9.74023 12.9883 9.05664L10.2539 2.49414C9.91211 1.74219 9.0918 1.33203 8.27148 1.53711L2.25586 3.17773C1.57227 3.38281 1.09375 4.06641 1.09375 4.75C1.09375 21.0879 14.2871 34.2812 30.625 34.2812C31.3086 34.2812 31.9922 33.8027 32.1973 33.1191L33.8379 27.1035C34.043 26.2832 33.6328 25.4629 32.8809 25.1211L26.3184 22.3867C25.6348 22.1133 24.8828 22.3184 24.4043 22.8652L21.6699 26.2832ZM20.7812 25.5312L23.584 22.1816C24.3359 21.2246 25.6348 20.9512 26.7285 21.4297L33.291 24.1641C34.5215 24.6426 35.2051 26.0781 34.8633 27.377L33.2227 33.3926C32.8809 34.5547 31.8555 35.375 30.625 35.375C13.6719 35.375 0 21.7031 0 4.75C0 3.51953 0.820312 2.49414 1.98242 2.15234L7.99805 0.511719C9.29688 0.169922 10.7324 0.785156 11.2109 2.08398L13.9453 8.64648C14.4238 9.74023 14.1504 11.0391 13.1934 11.791L9.84375 14.5938C12.0996 19.3789 15.9961 23.2754 20.7812 25.5312Z" fill="#2F2F2F"/>
</svg>
