<svg width="40" height="36" viewBox="0 0 40 36" fill="none" xmlns="http://www.w3.org/2000/svg">
<path d="M12.0312 1.46875H9.84375C7.99805 1.46875 6.5625 2.97266 6.5625 4.75V26.625C6.5625 28.4707 7.99805 29.9062 9.84375 29.9062H12.0312C13.8086 29.9062 15.3125 28.4707 15.3125 26.625V4.75C15.3125 2.97266 13.8086 1.46875 12.0312 1.46875ZM9.84375 0.375H12.0312C13.6035 0.375 15.0391 1.26367 15.791 2.5625H35C37.3926 2.5625 39.375 4.54492 39.375 6.9375V31C39.375 33.4609 37.3926 35.375 35 35.375H4.375C1.91406 35.375 0 33.4609 0 31V6.9375C0 4.54492 1.91406 2.5625 4.375 2.5625H6.01562C6.76758 1.26367 8.20312 0.375 9.84375 0.375ZM4.375 3.65625C2.5293 3.65625 1.09375 5.16016 1.09375 6.9375V31C1.09375 32.8457 2.5293 34.2812 4.375 34.2812H35C36.7773 34.2812 38.2812 32.8457 38.2812 31V6.9375C38.2812 5.16016 36.7773 3.65625 35 3.65625H16.2695C16.3379 4.06641 16.4062 4.4082 16.4062 4.75V26.625C16.4062 29.0859 14.4238 31 12.0312 31H9.84375C7.38281 31 5.46875 29.0859 5.46875 26.625V4.75C5.46875 4.4082 5.46875 4.06641 5.60547 3.65625H4.375ZM22.9688 8.03125C22.3535 8.03125 21.875 8.57812 21.875 9.125V12.4062C21.875 13.0215 22.3535 13.5 22.9688 13.5H31.7188C32.2656 13.5 32.8125 13.0215 32.8125 12.4062V9.125C32.8125 8.57812 32.2656 8.03125 31.7188 8.03125H22.9688ZM20.7812 9.125C20.7812 7.96289 21.7383 6.9375 22.9688 6.9375H31.7188C32.8809 6.9375 33.9062 7.96289 33.9062 9.125V12.4062C33.9062 13.6367 32.8809 14.5938 31.7188 14.5938H22.9688C21.7383 14.5938 20.7812 13.6367 20.7812 12.4062V9.125ZM20.7812 20.6094C20.7812 19.6523 21.2598 18.7637 22.1484 18.2852C22.9688 17.8066 23.9941 17.8066 24.8828 18.2852C25.7031 18.7637 26.25 19.6523 26.25 20.6094C26.25 21.6348 25.7031 22.5234 24.8828 23.002C23.9941 23.4805 22.9688 23.4805 22.1484 23.002C21.2598 22.5234 20.7812 21.6348 20.7812 20.6094ZM23.5156 22.25C24.4043 22.25 25.1562 21.5664 25.1562 20.6094C25.1562 19.7207 24.4043 18.9688 23.5156 18.9688C22.5586 18.9688 21.875 19.7207 21.875 20.6094C21.875 21.5664 22.5586 22.25 23.5156 22.25ZM31.1719 17.875C32.1289 17.875 33.0176 18.4219 33.4961 19.2422C33.9746 20.1309 33.9746 21.1562 33.4961 21.9766C33.0176 22.8652 32.1289 23.3438 31.1719 23.3438C30.1465 23.3438 29.2578 22.8652 28.7793 21.9766C28.3008 21.1562 28.3008 20.1309 28.7793 19.2422C29.2578 18.4219 30.1465 17.875 31.1719 17.875ZM32.8125 20.6094C32.8125 19.7207 32.0605 18.9688 31.1719 18.9688C30.2148 18.9688 29.5312 19.7207 29.5312 20.6094C29.5312 21.5664 30.2148 22.25 31.1719 22.25C32.0605 22.25 32.8125 21.5664 32.8125 20.6094ZM28.4375 28.2656C28.4375 27.3086 28.916 26.4199 29.8047 25.9414C30.625 25.4629 31.6504 25.4629 32.5391 25.9414C33.3594 26.4199 33.9062 27.3086 33.9062 28.2656C33.9062 29.291 33.3594 30.1797 32.5391 30.6582C31.6504 31.1367 30.625 31.1367 29.8047 30.6582C28.916 30.1797 28.4375 29.291 28.4375 28.2656ZM31.1719 29.9062C32.0605 29.9062 32.8125 29.2227 32.8125 28.2656C32.8125 27.377 32.0605 26.625 31.1719 26.625C30.2148 26.625 29.5312 27.377 29.5312 28.2656C29.5312 29.2227 30.2148 29.9062 31.1719 29.9062ZM23.5156 25.5312C24.4727 25.5312 25.3613 26.0781 25.8398 26.8984C26.3184 27.7871 26.3184 28.8125 25.8398 29.6328C25.3613 30.5215 24.4727 31 23.5156 31C22.4902 31 21.6016 30.5215 21.123 29.6328C20.6445 28.8125 20.6445 27.7871 21.123 26.8984C21.6016 26.0781 22.4902 25.5312 23.5156 25.5312ZM25.1562 28.2656C25.1562 27.377 24.4043 26.625 23.5156 26.625C22.5586 26.625 21.875 27.377 21.875 28.2656C21.875 29.2227 22.5586 29.9062 23.5156 29.9062C24.4043 29.9062 25.1562 29.2227 25.1562 28.2656Z" fill="#2F2F2F"/>
</svg>
