<svg width="124" height="62" viewBox="0 0 124 62" fill="none" xmlns="http://www.w3.org/2000/svg">
<path d="M1.02637 54.6139H12.3794V51.3809H4.49037V36.2869H1.02637V54.6139Z" fill="#333268"/>
<path d="M19.2013 54.9961C20.4707 55.0231 21.7239 54.7066 22.8283 54.0801C23.8712 53.473 24.7239 52.5867 25.2903 51.5211C25.8741 50.3514 26.1791 49.0624 26.1814 47.7551C26.1836 46.4478 25.8831 45.1577 25.3033 43.9861C24.7398 42.9149 23.8867 42.0237 22.8413 41.4141C21.7352 40.7785 20.4766 40.4573 19.2013 40.4851C17.9407 40.4606 16.6969 40.7771 15.6013 41.4011C14.5607 42.0089 13.7102 42.8947 13.1453 43.9591C12.5324 45.1231 12.2258 46.4239 12.2543 47.7391C12.2286 49.0467 12.5257 50.3406 13.1193 51.5061C13.6817 52.5683 14.5277 53.4538 15.5633 54.0641C16.6684 54.7003 17.9263 55.0226 19.2013 54.9961ZM19.2013 51.7631C18.7352 51.7922 18.269 51.7091 17.8416 51.5208C17.4143 51.3326 17.0383 51.0446 16.7453 50.6811C16.1541 49.8185 15.8635 48.7853 15.9183 47.7411C15.8705 46.7156 16.1465 45.701 16.7073 44.8411C16.9965 44.4609 17.3764 44.1592 17.8122 43.9635C18.248 43.7679 18.7259 43.6845 19.2023 43.7211C19.6714 43.6895 20.1412 43.7725 20.5712 43.9629C21.0011 44.1533 21.3783 44.4454 21.6703 44.8141C22.2683 45.669 22.5639 46.6991 22.5103 47.7411C22.5533 48.7715 22.2633 49.7883 21.6833 50.6411C21.3951 51.0193 21.0173 51.3199 20.5841 51.5158C20.1508 51.7116 19.6756 51.7966 19.2013 51.7631Z" fill="#333268"/>
<path d="M33.0221 54.996C33.6237 55.0017 34.2233 54.9247 34.8041 54.767C35.3326 54.6239 35.8378 54.4053 36.3041 54.118V55.505C36.3369 55.9639 36.1959 56.4184 35.909 56.778C35.6247 57.135 35.245 57.404 34.8141 57.554C34.3471 57.7338 33.8505 57.8244 33.3501 57.821C32.8814 57.8246 32.4188 57.7155 32.0011 57.503C31.5996 57.2968 31.2709 56.9726 31.0591 56.574L27.8521 58.127C28.395 59.0344 29.1736 59.7777 30.1051 60.278C31.0873 60.8312 32.1978 61.1164 33.3251 61.105C34.278 61.1135 35.2266 60.9762 36.1381 60.698C36.9495 60.4652 37.6978 60.0519 38.3271 59.489C38.9367 58.9359 39.3674 58.2134 39.5641 57.414C39.6402 57.1188 39.6913 56.8178 39.7171 56.514C39.7521 56.1969 39.7691 55.8781 39.7681 55.559V40.869H36.7381V41.633C36.2607 41.2625 35.7223 40.9782 35.1471 40.793C34.5198 40.5826 33.8616 40.4792 33.2001 40.487C31.9873 40.4588 30.7928 40.7862 29.7641 41.429C28.7829 42.0654 27.9961 42.9598 27.4901 44.014C26.9388 45.1785 26.665 46.4549 26.6901 47.743C26.6698 49.0202 26.9395 50.2853 27.4791 51.443C27.9744 52.494 28.7437 53.3921 29.7061 54.043C30.6899 54.6881 31.8459 55.0203 33.0221 54.996ZM33.5821 51.916C32.925 51.9443 32.2781 51.7467 31.7491 51.356C31.2621 50.9661 30.8959 50.4459 30.6931 49.856C30.4567 49.177 30.3403 48.462 30.3491 47.743C30.3399 47.0315 30.4606 46.3243 30.7051 45.656C30.9164 45.0561 31.2967 44.5299 31.8001 44.141C32.3546 43.7423 33.0266 43.5406 33.7091 43.568C34.1661 43.5295 34.6249 43.617 35.0355 43.8212C35.4462 44.0254 35.793 44.3384 36.0381 44.726C36.5437 45.6481 36.7859 46.6915 36.7381 47.742C36.785 48.7982 36.5382 49.8467 36.0251 50.771C35.759 51.1644 35.3914 51.4783 34.9612 51.6796C34.5311 51.8808 34.0545 51.9618 33.5821 51.914V51.916Z" fill="#333268"/>
<path d="M47.9904 54.9959C49.2598 55.0229 50.513 54.7064 51.6174 54.0799C52.658 53.4722 53.5085 52.5864 54.0734 51.5219C54.6572 50.3522 54.9622 49.0632 54.9645 47.7559C54.9667 46.4486 54.6662 45.1586 54.0864 43.9869C53.5247 42.9162 52.6738 42.0247 51.6304 41.4139C50.5206 40.8064 49.2762 40.4869 48.011 40.4846C46.7459 40.4824 45.5003 40.7974 44.3884 41.4009C43.3478 42.0087 42.4973 42.8945 41.9324 43.9589C41.3195 45.1229 41.0129 46.4237 41.0414 47.7389C41.0158 49.0466 41.3129 50.3404 41.9064 51.5059C42.4689 52.5681 43.3149 53.4536 44.3504 54.0639C45.4561 54.7005 46.7148 55.0228 47.9904 54.9959ZM47.9904 51.7629C47.5243 51.792 47.0581 51.7089 46.6307 51.5207C46.2034 51.3324 45.8274 51.0444 45.5344 50.6809C44.9433 49.8183 44.6527 48.7851 44.7074 47.7409C44.6596 46.7154 44.9357 45.7008 45.4964 44.8409C45.7853 44.4605 46.1649 44.1585 46.6006 43.9625C47.0362 43.7665 47.514 43.6827 47.9904 43.7189C48.4599 43.6874 48.93 43.7706 49.3601 43.9614C49.7903 44.1522 50.1675 44.4448 50.4594 44.8139C51.0574 45.6688 51.353 46.6989 51.2994 47.7409C51.3424 48.7713 51.0524 49.7882 50.4724 50.6409C50.1842 51.0191 49.8065 51.3197 49.3732 51.5156C48.9399 51.7115 48.4647 51.7964 47.9904 51.7629Z" fill="#333268"/>
<path d="M56.4902 38.959H59.9522V35.905H56.4902V38.959ZM56.4902 54.614H59.9522V40.869H56.4902V54.614Z" fill="#333268"/>
<path d="M62.2153 60.723H65.7023V54.114C66.1654 54.3998 66.6667 54.6184 67.1913 54.763C67.7777 54.9218 68.3829 55.0002 68.9903 54.996C70.1687 55.0208 71.327 54.6878 72.3123 54.041C73.2734 53.392 74.0392 52.493 74.5273 51.441C75.0744 50.2854 75.3481 49.0194 75.3273 47.741C75.3507 46.4518 75.0709 45.1752 74.5103 44.014C74.0105 42.9587 73.2261 42.0638 72.2453 41.43C71.2166 40.7872 70.0221 40.4597 68.8093 40.488C68.1436 40.4807 67.4812 40.5841 66.8493 40.794C66.2789 40.9811 65.7451 41.2653 65.2713 41.634V40.87H62.2153V60.723ZM68.4263 51.914C67.9536 51.9597 67.4773 51.8774 67.0473 51.6758C66.6174 51.4742 66.2495 51.1606 65.9823 50.768C65.4691 49.8437 65.2223 48.7952 65.2693 47.739C65.2215 46.6885 65.4637 45.6451 65.9693 44.723C66.2159 44.3368 66.5629 44.0249 66.9732 43.8209C67.3835 43.6169 67.8416 43.5284 68.2983 43.565C68.9783 43.5349 69.6483 43.737 70.1983 44.138C70.7078 44.5236 71.0928 45.0504 71.3053 45.653C71.5498 46.3213 71.6704 47.0285 71.6613 47.74C71.6701 48.459 71.5537 49.174 71.3173 49.853C71.1142 50.4428 70.748 50.9629 70.2613 51.353C69.7319 51.7444 69.0842 51.9424 68.4263 51.914Z" fill="#333268"/>
<path d="M81.5961 54.9959C83.1009 55.084 84.5908 54.6577 85.8211 53.7869C86.3214 53.3944 86.7208 52.8883 86.9864 52.3106C87.2519 51.7328 87.376 51.1001 87.3481 50.4649C87.3722 49.9964 87.296 49.5281 87.1248 49.0913C86.9536 48.6545 86.6912 48.2593 86.3551 47.9319C85.3834 47.158 84.2394 46.6298 83.0201 46.3919C81.9535 46.1206 81.1558 45.8999 80.6271 45.7299C80.254 45.6324 79.9037 45.4625 79.5961 45.2299C79.5169 45.1518 79.4545 45.0582 79.4129 44.955C79.3712 44.8518 79.3513 44.7411 79.3541 44.6299C79.3519 44.4384 79.4047 44.2502 79.5063 44.0878C79.6078 43.9255 79.7539 43.7957 79.9271 43.7139C80.4062 43.4856 80.94 43.3972 81.4671 43.4589C82.8158 43.5622 83.5545 44.1412 83.6831 45.1959L87.2211 44.5599C87.1457 43.9634 86.9432 43.3899 86.6273 42.8783C86.3115 42.3666 85.8896 41.9287 85.3901 41.5939C84.2059 40.8145 82.8066 40.4273 81.3901 40.4869C79.9677 40.4133 78.5625 40.8263 77.4061 41.6579C76.9246 42.0273 76.5384 42.5065 76.2797 43.0555C76.021 43.6045 75.8974 44.2074 75.9191 44.8139C75.8967 45.2799 75.9776 45.745 76.1558 46.1762C76.334 46.6073 76.6052 46.9937 76.9501 47.3079C78.0056 48.0796 79.2179 48.6098 80.5011 48.8609C81.4938 49.1242 82.2235 49.3362 82.6901 49.4969C83.033 49.583 83.3483 49.7551 83.6061 49.9969C83.7484 50.1823 83.8194 50.4126 83.8061 50.6459C83.8132 50.8446 83.7703 51.0419 83.6814 51.2198C83.5924 51.3976 83.4603 51.5503 83.2971 51.6639C82.8608 51.927 82.3547 52.0512 81.8461 52.0199C81.1704 52.0472 80.5039 51.8553 79.9461 51.4729C79.4511 51.1041 79.1108 50.5645 78.9911 49.9589L75.4531 50.4939C75.5358 51.1511 75.7496 51.7849 76.082 52.3578C76.4145 52.9307 76.8586 53.431 77.3881 53.8289C78.6292 54.6595 80.1046 55.0687 81.5961 54.9959Z" fill="#333268"/>
<path d="M93.7343 55.0209C94.6266 55.0403 95.5128 54.8699 96.3343 54.5209C97.038 54.2147 97.6701 53.7651 98.1903 53.2009V54.6139H101.244V40.8689H97.7563V47.8439C97.7788 48.543 97.6796 49.2407 97.4633 49.9059C97.3208 50.3533 97.072 50.7596 96.7383 51.0899C96.4656 51.3396 96.1387 51.5227 95.7833 51.6249C95.473 51.714 95.1521 51.7611 94.8293 51.7649C94.216 51.8019 93.6089 51.6252 93.1113 51.2649C92.7162 50.9396 92.4168 50.5131 92.2453 50.0309C92.0718 49.56 91.9647 49.0673 91.9273 48.5669C91.8933 48.0749 91.8763 47.6719 91.8763 47.3579V40.8689H88.3633V48.5819C88.3633 48.8112 88.3803 49.1759 88.4143 49.6759C88.4592 50.2396 88.5573 50.7977 88.7073 51.3429C88.8765 51.9642 89.1468 52.5534 89.5073 53.0869C89.9178 53.6717 90.4645 54.1478 91.1003 54.4739C91.9201 54.8696 92.8247 55.0575 93.7343 55.0209Z" fill="#333268"/>
<path d="M103.248 54.614H106.735V46.29C106.704 45.5907 106.935 44.905 107.384 44.368C107.6 44.1206 107.869 43.9245 108.171 43.7941C108.473 43.6637 108.8 43.6021 109.128 43.614C109.462 43.597 109.795 43.6571 110.102 43.7896C110.408 43.9221 110.681 44.1234 110.897 44.378C111.363 44.9802 111.593 45.7312 111.546 46.491V54.614H115.008V46.29C114.977 45.5907 115.208 44.905 115.657 44.368C115.873 44.1207 116.142 43.9246 116.443 43.7942C116.745 43.6638 117.072 43.6022 117.4 43.614C117.734 43.5969 118.067 43.6569 118.374 43.7894C118.681 43.9219 118.953 44.1233 119.169 44.378C119.636 44.9798 119.867 45.731 119.819 46.491V54.614H123.28V45.578C123.342 44.2568 122.911 42.9598 122.071 41.938C121.622 41.4537 121.069 41.0764 120.455 40.8341C119.84 40.5918 119.179 40.4906 118.52 40.538C117.675 40.5293 116.841 40.7259 116.089 41.111C115.375 41.4721 114.766 42.0111 114.32 42.676C113.962 42.0289 113.434 41.4919 112.793 41.123C112.038 40.7093 111.185 40.5069 110.324 40.537C109.532 40.5293 108.749 40.7002 108.033 41.037C107.36 41.3416 106.767 41.7991 106.302 42.373V40.873H103.248V54.614Z" fill="#333268"/>
<path d="M0.990236 15.114C0.989102 12.165 1.88716 9.28581 3.5646 6.86041C5.24205 4.43501 7.61915 2.57874 10.3788 1.5392C13.1385 0.499651 16.1495 0.326258 19.0102 1.04215C21.871 1.75804 24.4455 3.32917 26.3902 5.54598C31.2122 10.959 35.1992 10.674 39.4332 6.67798C41.081 5.12282 43.148 4.08426 45.3793 3.6905C47.6105 3.29674 49.9083 3.56502 51.9888 4.46223C54.0693 5.35943 55.8415 6.84628 57.0866 8.73921C58.3317 10.6321 58.9953 12.8483 58.9953 15.114C58.9953 17.3797 58.3317 19.5958 57.0866 21.4887C55.8415 23.3817 54.0693 24.8685 51.9888 25.7657C49.9083 26.6629 47.6105 26.9312 45.3793 26.5375C43.148 26.1437 41.081 25.1051 39.4332 23.55C35.2002 19.55 31.2142 19.269 26.3942 24.678C24.45 26.896 21.8756 28.4684 19.0145 29.1853C16.1534 29.9022 13.1418 29.7295 10.3814 28.6903C7.621 27.6511 5.24318 25.7947 3.56523 23.369C1.88727 20.9433 0.988987 18.0635 0.990236 15.114Z" fill="#E4E4E4"/>
<path d="M0.990236 15.114C0.989102 12.165 1.88716 9.28581 3.5646 6.86041C5.24205 4.43501 7.61915 2.57874 10.3788 1.5392C13.1385 0.499651 16.1495 0.326258 19.0102 1.04215C21.871 1.75804 24.4455 3.32917 26.3902 5.54598C31.2122 10.959 35.1992 10.674 39.4332 6.67798C41.081 5.12282 43.148 4.08426 45.3793 3.6905C47.6105 3.29674 49.9083 3.56502 51.9888 4.46223C54.0693 5.35943 55.8415 6.84628 57.0866 8.73921C58.3317 10.6321 58.9953 12.8483 58.9953 15.114C58.9953 17.3797 58.3317 19.5958 57.0866 21.4887C55.8415 23.3817 54.0693 24.8685 51.9888 25.7657C49.9083 26.6629 47.6105 26.9312 45.3793 26.5375C43.148 26.1437 41.081 25.1051 39.4332 23.55C35.2002 19.55 31.2142 19.269 26.3942 24.678C24.45 26.896 21.8756 28.4684 19.0145 29.1853C16.1534 29.9022 13.1418 29.7295 10.3814 28.6903C7.621 27.6511 5.24318 25.7947 3.56523 23.369C1.88727 20.9433 0.988987 18.0635 0.990236 15.114Z" fill="#E4E4E4"/>
<path d="M0.990236 15.114C0.989102 12.165 1.88716 9.28581 3.5646 6.86041C5.24205 4.43501 7.61915 2.57874 10.3788 1.5392C13.1385 0.499651 16.1495 0.326258 19.0102 1.04215C21.871 1.75804 24.4455 3.32917 26.3902 5.54598C31.2122 10.959 35.1992 10.674 39.4332 6.67798C41.081 5.12282 43.148 4.08426 45.3793 3.6905C47.6105 3.29674 49.9083 3.56502 51.9888 4.46223C54.0693 5.35943 55.8415 6.84628 57.0866 8.73921C58.3317 10.6321 58.9953 12.8483 58.9953 15.114C58.9953 17.3797 58.3317 19.5958 57.0866 21.4887C55.8415 23.3817 54.0693 24.8685 51.9888 25.7657C49.9083 26.6629 47.6105 26.9312 45.3793 26.5375C43.148 26.1437 41.081 25.1051 39.4332 23.55C35.2002 19.55 31.2142 19.269 26.3942 24.678C24.45 26.896 21.8756 28.4684 19.0145 29.1853C16.1534 29.9022 13.1418 29.7295 10.3814 28.6903C7.621 27.6511 5.24318 25.7947 3.56523 23.369C1.88727 20.9433 0.988987 18.0635 0.990236 15.114Z" fill="#E4E4E4"/>
<path d="M0.990236 15.114C0.989102 12.165 1.88716 9.28581 3.5646 6.86041C5.24205 4.43501 7.61915 2.57874 10.3788 1.5392C13.1385 0.499651 16.1495 0.326258 19.0102 1.04215C21.871 1.75804 24.4455 3.32917 26.3902 5.54598C31.2122 10.959 35.1992 10.674 39.4332 6.67798C41.081 5.12282 43.148 4.08426 45.3793 3.6905C47.6105 3.29674 49.9083 3.56502 51.9888 4.46223C54.0693 5.35943 55.8415 6.84628 57.0866 8.73921C58.3317 10.6321 58.9953 12.8483 58.9953 15.114C58.9953 17.3797 58.3317 19.5958 57.0866 21.4887C55.8415 23.3817 54.0693 24.8685 51.9888 25.7657C49.9083 26.6629 47.6105 26.9312 45.3793 26.5375C43.148 26.1437 41.081 25.1051 39.4332 23.55C35.2002 19.55 31.2142 19.269 26.3942 24.678C24.45 26.896 21.8756 28.4684 19.0145 29.1853C16.1534 29.9022 13.1418 29.7295 10.3814 28.6903C7.621 27.6511 5.24318 25.7947 3.56523 23.369C1.88727 20.9433 0.988987 18.0635 0.990236 15.114Z" fill="#E4E4E4"/>
<path d="M0.990236 15.114C0.989102 12.165 1.88716 9.28581 3.5646 6.86041C5.24205 4.43501 7.61915 2.57874 10.3788 1.5392C13.1385 0.499651 16.1495 0.326258 19.0102 1.04215C21.871 1.75804 24.4455 3.32917 26.3902 5.54598C31.2122 10.959 35.1992 10.674 39.4332 6.67798C41.081 5.12282 43.148 4.08426 45.3793 3.6905C47.6105 3.29674 49.9083 3.56502 51.9888 4.46223C54.0693 5.35943 55.8415 6.84628 57.0866 8.73921C58.3317 10.6321 58.9953 12.8483 58.9953 15.114C58.9953 17.3797 58.3317 19.5958 57.0866 21.4887C55.8415 23.3817 54.0693 24.8685 51.9888 25.7657C49.9083 26.6629 47.6105 26.9312 45.3793 26.5375C43.148 26.1437 41.081 25.1051 39.4332 23.55C35.2002 19.55 31.2142 19.269 26.3942 24.678C24.45 26.896 21.8756 28.4684 19.0145 29.1853C16.1534 29.9022 13.1418 29.7295 10.3814 28.6903C7.621 27.6511 5.24318 25.7947 3.56523 23.369C1.88727 20.9433 0.988987 18.0635 0.990236 15.114Z" fill="#E4E4E4"/>
<path d="M0.990236 15.114C0.989102 12.165 1.88716 9.28581 3.5646 6.86041C5.24205 4.43501 7.61915 2.57874 10.3788 1.5392C13.1385 0.499651 16.1495 0.326258 19.0102 1.04215C21.871 1.75804 24.4455 3.32917 26.3902 5.54598C31.2122 10.959 35.1992 10.674 39.4332 6.67798C41.081 5.12282 43.148 4.08426 45.3793 3.6905C47.6105 3.29674 49.9083 3.56502 51.9888 4.46223C54.0693 5.35943 55.8415 6.84628 57.0866 8.73921C58.3317 10.6321 58.9953 12.8483 58.9953 15.114C58.9953 17.3797 58.3317 19.5958 57.0866 21.4887C55.8415 23.3817 54.0693 24.8685 51.9888 25.7657C49.9083 26.6629 47.6105 26.9312 45.3793 26.5375C43.148 26.1437 41.081 25.1051 39.4332 23.55C35.2002 19.55 31.2142 19.269 26.3942 24.678C24.45 26.896 21.8756 28.4684 19.0145 29.1853C16.1534 29.9022 13.1418 29.7295 10.3814 28.6903C7.621 27.6511 5.24318 25.7947 3.56523 23.369C1.88727 20.9433 0.988987 18.0635 0.990236 15.114Z" fill="#E4E4E4"/>
</svg>
