<svg width="216" height="35" viewBox="0 0 216 35" fill="none" xmlns="http://www.w3.org/2000/svg">
<path d="M83.4857 9.80798C84.5497 9.80798 85.4257 10.068 86.1137 10.588C86.8017 11.108 87.2297 11.812 87.3977 12.7H85.2257C85.0817 12.396 84.8617 12.156 84.5657 11.98C84.2697 11.796 83.9137 11.704 83.4977 11.704C82.8497 11.704 82.3297 11.924 81.9377 12.364C81.5457 12.796 81.3497 13.384 81.3497 14.128C81.3497 14.936 81.5537 15.556 81.9617 15.988C82.3777 16.42 82.9657 16.636 83.7257 16.636C84.2137 16.636 84.6417 16.504 85.0097 16.24C85.3777 15.968 85.6377 15.584 85.7897 15.088H83.1977V13.612H87.5057V15.64C87.3457 16.136 87.0897 16.596 86.7377 17.02C86.3857 17.444 85.9337 17.788 85.3817 18.052C84.8377 18.316 84.2137 18.448 83.5097 18.448C82.6537 18.448 81.9057 18.268 81.2657 17.908C80.6257 17.54 80.1297 17.028 79.7777 16.372C79.4337 15.716 79.2617 14.968 79.2617 14.128C79.2617 13.288 79.4337 12.54 79.7777 11.884C80.1297 11.228 80.6217 10.72 81.2537 10.36C81.8937 9.99198 82.6377 9.80798 83.4857 9.80798ZM93.9103 16.828H90.7303L90.2023 18.376H88.0423L91.1503 9.95198H93.5143L96.6223 18.376H94.4383L93.9103 16.828ZM93.3823 15.268L92.3263 12.148L91.2583 15.268H93.3823ZM102.676 16.828H99.4959L98.9679 18.376H96.8079L99.9159 9.95198H102.28L105.388 18.376H103.204L102.676 16.828ZM102.148 15.268L101.092 12.148L100.024 15.268H102.148ZM112.282 15.988C112.282 16.436 112.166 16.848 111.934 17.224C111.71 17.6 111.374 17.9 110.926 18.124C110.486 18.348 109.95 18.46 109.318 18.46C108.366 18.46 107.582 18.228 106.966 17.764C106.35 17.3 106.014 16.652 105.958 15.82H108.142C108.174 16.14 108.286 16.392 108.478 16.576C108.678 16.76 108.93 16.852 109.234 16.852C109.498 16.852 109.706 16.78 109.858 16.636C110.01 16.492 110.086 16.3 110.086 16.06C110.086 15.844 110.014 15.664 109.87 15.52C109.734 15.376 109.562 15.26 109.354 15.172C109.146 15.076 108.858 14.964 108.49 14.836C107.954 14.652 107.514 14.476 107.17 14.308C106.834 14.132 106.542 13.876 106.294 13.54C106.054 13.196 105.934 12.752 105.934 12.208C105.934 11.704 106.062 11.268 106.318 10.9C106.574 10.532 106.926 10.252 107.374 10.06C107.83 9.85998 108.35 9.75998 108.934 9.75998C109.878 9.75998 110.626 9.98398 111.178 10.432C111.738 10.88 112.054 11.496 112.126 12.28H109.906C109.866 12 109.762 11.78 109.594 11.62C109.434 11.452 109.214 11.368 108.934 11.368C108.694 11.368 108.498 11.432 108.346 11.56C108.202 11.688 108.13 11.876 108.13 12.124C108.13 12.324 108.194 12.496 108.322 12.64C108.458 12.776 108.626 12.888 108.826 12.976C109.026 13.064 109.314 13.176 109.69 13.312C110.234 13.496 110.678 13.68 111.022 13.864C111.366 14.04 111.662 14.3 111.91 14.644C112.158 14.988 112.282 15.436 112.282 15.988ZM124.948 9.89198L122.92 18.376H120.376L119.02 12.7L117.652 18.376H115.108L113.08 9.89198H115.312L116.404 16.036L117.892 9.89198H120.136L121.624 16.036L122.728 9.89198H124.948ZM131.281 16.828H128.101L127.573 18.376H125.413L128.521 9.95198H130.885L133.993 18.376H131.809L131.281 16.828ZM130.753 15.268L129.697 12.148L128.629 15.268H130.753ZM142.327 18.376H140.275L136.843 13.168V18.376H134.791V9.89198H136.843L140.275 15.148V9.89198H142.327V18.376ZM151.376 14.116C151.376 14.948 151.196 15.688 150.836 16.336C150.484 16.976 149.972 17.476 149.3 17.836C148.636 18.196 147.852 18.376 146.948 18.376H143.744V9.89198H146.948C147.86 9.89198 148.648 10.068 149.312 10.42C149.976 10.772 150.484 11.268 150.836 11.908C151.196 12.548 151.376 13.284 151.376 14.116ZM146.768 16.54C147.568 16.54 148.188 16.328 148.628 15.904C149.076 15.48 149.3 14.884 149.3 14.116C149.3 13.348 149.076 12.752 148.628 12.328C148.188 11.904 147.568 11.692 146.768 11.692H145.796V16.54H146.768ZM158.641 15.988C158.641 16.436 158.525 16.848 158.293 17.224C158.069 17.6 157.733 17.9 157.285 18.124C156.845 18.348 156.309 18.46 155.677 18.46C154.725 18.46 153.941 18.228 153.325 17.764C152.709 17.3 152.373 16.652 152.317 15.82H154.501C154.533 16.14 154.645 16.392 154.837 16.576C155.037 16.76 155.289 16.852 155.593 16.852C155.857 16.852 156.065 16.78 156.217 16.636C156.369 16.492 156.445 16.3 156.445 16.06C156.445 15.844 156.373 15.664 156.229 15.52C156.093 15.376 155.921 15.26 155.713 15.172C155.505 15.076 155.217 14.964 154.849 14.836C154.313 14.652 153.873 14.476 153.529 14.308C153.193 14.132 152.901 13.876 152.653 13.54C152.413 13.196 152.293 12.752 152.293 12.208C152.293 11.704 152.421 11.268 152.677 10.9C152.933 10.532 153.285 10.252 153.733 10.06C154.189 9.85998 154.709 9.75998 155.293 9.75998C156.237 9.75998 156.985 9.98398 157.537 10.432C158.097 10.88 158.413 11.496 158.485 12.28H156.265C156.225 12 156.121 11.78 155.953 11.62C155.793 11.452 155.573 11.368 155.293 11.368C155.053 11.368 154.857 11.432 154.705 11.56C154.561 11.688 154.489 11.876 154.489 12.124C154.489 12.324 154.553 12.496 154.681 12.64C154.817 12.776 154.985 12.888 155.185 12.976C155.385 13.064 155.673 13.176 156.049 13.312C156.593 13.496 157.037 13.68 157.381 13.864C157.725 14.04 158.021 14.3 158.269 14.644C158.517 14.988 158.641 15.436 158.641 15.988ZM167.107 9.89198L164.167 15.556V18.376H162.103V15.556L159.163 9.89198H161.515L163.147 13.348L164.779 9.89198H167.107ZM173.992 15.988C173.992 16.436 173.876 16.848 173.644 17.224C173.42 17.6 173.084 17.9 172.636 18.124C172.196 18.348 171.66 18.46 171.028 18.46C170.076 18.46 169.292 18.228 168.676 17.764C168.06 17.3 167.724 16.652 167.668 15.82H169.852C169.884 16.14 169.996 16.392 170.188 16.576C170.388 16.76 170.64 16.852 170.944 16.852C171.208 16.852 171.416 16.78 171.568 16.636C171.72 16.492 171.796 16.3 171.796 16.06C171.796 15.844 171.724 15.664 171.58 15.52C171.444 15.376 171.272 15.26 171.064 15.172C170.856 15.076 170.568 14.964 170.2 14.836C169.664 14.652 169.224 14.476 168.88 14.308C168.544 14.132 168.252 13.876 168.004 13.54C167.764 13.196 167.644 12.752 167.644 12.208C167.644 11.704 167.772 11.268 168.028 10.9C168.284 10.532 168.636 10.252 169.084 10.06C169.54 9.85998 170.06 9.75998 170.644 9.75998C171.588 9.75998 172.336 9.98398 172.888 10.432C173.448 10.88 173.764 11.496 173.836 12.28H171.616C171.576 12 171.472 11.78 171.304 11.62C171.144 11.452 170.924 11.368 170.644 11.368C170.404 11.368 170.208 11.432 170.056 11.56C169.912 11.688 169.84 11.876 169.84 12.124C169.84 12.324 169.904 12.496 170.032 12.64C170.168 12.776 170.336 12.888 170.536 12.976C170.736 13.064 171.024 13.176 171.4 13.312C171.944 13.496 172.388 13.68 172.732 13.864C173.076 14.04 173.372 14.3 173.62 14.644C173.868 14.988 173.992 15.436 173.992 15.988ZM181.223 9.89198V11.524H178.919V18.376H176.855V11.524H174.575V9.89198H181.223ZM184.14 11.524V13.3H187.008V14.848H184.14V16.732H187.368V18.376H182.088V9.89198H187.368V11.524H184.14ZM198.073 9.95198V18.376H196.021V13.108L194.197 18.376H192.421L190.585 13.096V18.376H188.533V9.95198H191.041L193.333 15.82L195.577 9.95198H198.073ZM201.542 11.524V13.3H204.41V14.848H201.542V16.732H204.77V18.376H199.49V9.89198H204.77V11.524H201.542ZM213.472 18.376H211.42L207.988 13.168V18.376H205.936V9.89198H207.988L211.42 15.148V9.89198H213.472V18.376Z" fill="white"/>
<path d="M80.0837 23.2722V27.1152C80.0837 27.7932 80.2307 28.2912 80.5247 28.6092C80.8247 28.9272 81.2327 29.0862 81.7487 29.0862C82.2647 29.0862 82.6667 28.9272 82.9547 28.6092C83.2487 28.2912 83.3957 27.7932 83.3957 27.1152V23.2722H84.0257V27.1152C84.0257 27.9732 83.8187 28.6152 83.4047 29.0412C82.9907 29.4672 82.4357 29.6802 81.7397 29.6802C81.0437 29.6802 80.4887 29.4672 80.0747 29.0412C79.6607 28.6152 79.4537 27.9732 79.4537 27.1152V23.2722H80.0837ZM92.9478 23.2722L91.3098 29.6172H90.5538L88.9698 24.1812L87.3768 29.6172H86.6208L84.9828 23.2722H85.6848L87.0078 28.8342L88.6098 23.2722H89.3208L90.9228 28.8432L92.2548 23.2722H92.9478ZM96.4928 23.2722L98.5358 28.8792L100.597 23.2722H101.29L98.9318 29.6172H98.1488L95.7998 23.2722H96.4928ZM102.813 23.7852V26.1792H105.288V26.6742H102.813V29.0952H105.558V29.6172H102.174V23.2722H105.558V23.7852H102.813ZM107.296 23.2722V29.6172H106.657V23.2722H107.296ZM109.3 29.1132H111.604V29.6172H108.661V23.2722H109.3V29.1132ZM113.105 23.2722V29.6172H112.466V23.2722H113.105ZM117.332 23.2182C118.052 23.2182 118.661 23.3982 119.159 23.7582C119.657 24.1182 119.999 24.6072 120.185 25.2252H119.528C119.366 24.7992 119.09 24.4542 118.7 24.1902C118.316 23.9262 117.86 23.7942 117.332 23.7942C116.876 23.7942 116.462 23.9022 116.09 24.1182C115.724 24.3342 115.436 24.6432 115.226 25.0452C115.016 25.4472 114.911 25.9152 114.911 26.4492C114.911 26.9952 115.016 27.4692 115.226 27.8712C115.442 28.2732 115.736 28.5822 116.108 28.7982C116.486 29.0142 116.915 29.1222 117.395 29.1222C117.821 29.1222 118.211 29.0292 118.565 28.8432C118.919 28.6512 119.204 28.3752 119.42 28.0152C119.642 27.6552 119.771 27.2322 119.807 26.7462H117.17V26.2692H120.356V26.8272C120.314 27.3672 120.161 27.8532 119.897 28.2852C119.639 28.7172 119.288 29.0592 118.844 29.3112C118.406 29.5572 117.905 29.6802 117.341 29.6802C116.741 29.6802 116.207 29.5452 115.739 29.2752C115.271 28.9992 114.908 28.6152 114.65 28.1232C114.392 27.6312 114.263 27.0732 114.263 26.4492C114.263 25.8252 114.392 25.2672 114.65 24.7752C114.908 24.2832 115.268 23.9022 115.73 23.6322C116.198 23.3562 116.732 23.2182 117.332 23.2182ZM126.217 23.2722V29.6172H125.587V26.6112H122.149V29.6172H121.51V23.2722H122.149V26.0892H125.587V23.2722H126.217ZM128.231 23.7852V26.1792H130.706V26.6742H128.231V29.0952H130.976V29.6172H127.592V23.2722H130.976V23.7852H128.231ZM132.714 23.2722V29.6172H132.075V23.2722H132.714ZM139.335 26.4402C139.335 27.0942 139.206 27.6612 138.948 28.1412C138.69 28.6152 138.309 28.9812 137.805 29.2392C137.307 29.4912 136.704 29.6172 135.996 29.6172H134.079V23.2722H135.996C137.064 23.2722 137.886 23.5542 138.462 24.1182C139.044 24.6762 139.335 25.4502 139.335 26.4402ZM135.951 29.0502C136.845 29.0502 137.526 28.8222 137.994 28.3662C138.462 27.9042 138.696 27.2622 138.696 26.4402C138.696 25.6182 138.462 24.9792 137.994 24.5232C137.526 24.0612 136.845 23.8302 135.951 23.8302H134.718V29.0502H135.951ZM143.463 23.2722V29.6172H142.824V23.2722H143.463ZM148.698 28.0062C148.698 28.2942 148.629 28.5672 148.491 28.8252C148.359 29.0772 148.152 29.2842 147.87 29.4462C147.588 29.6022 147.237 29.6802 146.817 29.6802C146.409 29.6802 146.046 29.6052 145.728 29.4552C145.41 29.3052 145.155 29.1012 144.963 28.8432C144.777 28.5792 144.669 28.2852 144.639 27.9612H145.305C145.329 28.1472 145.398 28.3332 145.512 28.5192C145.626 28.7052 145.791 28.8612 146.007 28.9872C146.223 29.1072 146.484 29.1672 146.79 29.1672C147.192 29.1672 147.498 29.0592 147.708 28.8432C147.924 28.6272 148.032 28.3542 148.032 28.0242C148.032 27.7422 147.96 27.5142 147.816 27.3402C147.678 27.1602 147.504 27.0222 147.294 26.9262C147.09 26.8302 146.808 26.7252 146.448 26.6112C146.052 26.4852 145.731 26.3652 145.485 26.2512C145.245 26.1312 145.041 25.9572 144.873 25.7292C144.705 25.5012 144.621 25.1982 144.621 24.8202C144.621 24.3402 144.789 23.9502 145.125 23.6502C145.461 23.3502 145.923 23.2002 146.511 23.2002C147.111 23.2002 147.585 23.3472 147.933 23.6412C148.287 23.9352 148.497 24.3012 148.563 24.7392H147.888C147.834 24.4692 147.69 24.2292 147.456 24.0192C147.228 23.8092 146.913 23.7042 146.511 23.7042C146.139 23.7042 145.842 23.8002 145.62 23.9922C145.398 24.1842 145.287 24.4512 145.287 24.7932C145.287 25.0632 145.356 25.2822 145.494 25.4502C145.632 25.6182 145.8 25.7472 145.998 25.8372C146.202 25.9272 146.478 26.0292 146.826 26.1432C147.228 26.2692 147.552 26.3922 147.798 26.5122C148.05 26.6322 148.263 26.8122 148.437 27.0522C148.611 27.2922 148.698 27.6102 148.698 28.0062ZM155.064 23.2002C155.652 23.2002 156.18 23.3382 156.648 23.6142C157.116 23.8902 157.482 24.2742 157.746 24.7662C158.016 25.2582 158.151 25.8162 158.151 26.4402C158.151 27.0642 158.016 27.6252 157.746 28.1232C157.482 28.6152 157.116 28.9992 156.648 29.2752C156.18 29.5512 155.652 29.6892 155.064 29.6892C154.476 29.6892 153.948 29.5512 153.48 29.2752C153.012 28.9992 152.643 28.6152 152.373 28.1232C152.109 27.6252 151.977 27.0642 151.977 26.4402C151.977 25.8162 152.109 25.2582 152.373 24.7662C152.643 24.2742 153.012 23.8902 153.48 23.6142C153.948 23.3382 154.476 23.2002 155.064 23.2002ZM155.064 23.7852C154.602 23.7852 154.185 23.8932 153.813 24.1092C153.447 24.3252 153.156 24.6342 152.94 25.0362C152.73 25.4382 152.625 25.9062 152.625 26.4402C152.625 26.9742 152.73 27.4422 152.94 27.8442C153.156 28.2462 153.447 28.5552 153.813 28.7712C154.185 28.9872 154.602 29.0952 155.064 29.0952C155.526 29.0952 155.94 28.9872 156.306 28.7712C156.678 28.5552 156.969 28.2462 157.179 27.8442C157.395 27.4422 157.503 26.9742 157.503 26.4402C157.503 25.9062 157.395 25.4382 157.179 25.0362C156.969 24.6342 156.678 24.3252 156.306 24.1092C155.94 23.8932 155.526 23.7852 155.064 23.7852ZM164.055 29.6172H163.416L159.942 24.3162V29.6172H159.303V23.2812H159.942L163.416 28.5912V23.2812H164.055V29.6172ZM165.789 29.0862H169.092V29.6172H165.087V29.1132L168.318 23.8032H165.177V23.2722H169.029V23.7852L165.789 29.0862ZM170.77 23.7852V26.1792H173.245V26.6742H170.77V29.0952H173.515V29.6172H170.131V23.2722H173.515V23.7852H170.77ZM179.859 26.3322C180.255 26.4102 180.576 26.5932 180.822 26.8812C181.068 27.1692 181.191 27.5112 181.191 27.9072C181.191 28.4172 181.017 28.8312 180.669 29.1492C180.321 29.4612 179.817 29.6172 179.157 29.6172H176.952V23.2722H179.13C179.766 23.2722 180.243 23.4162 180.561 23.7042C180.885 23.9862 181.047 24.3672 181.047 24.8472C181.047 25.2612 180.936 25.5942 180.714 25.8462C180.492 26.0922 180.207 26.2542 179.859 26.3322ZM177.591 26.1072H179.049C179.493 26.1072 179.829 26.0052 180.057 25.8012C180.291 25.5912 180.408 25.3062 180.408 24.9462C180.408 24.5922 180.294 24.3132 180.066 24.1092C179.838 23.9052 179.487 23.8032 179.013 23.8032H177.591V26.1072ZM179.049 29.0772C179.523 29.0772 179.892 28.9692 180.156 28.7532C180.42 28.5312 180.552 28.2252 180.552 27.8352C180.552 27.4512 180.417 27.1482 180.147 26.9262C179.877 26.6982 179.505 26.5842 179.031 26.5842H177.591V29.0772H179.049ZM182.863 23.2722V27.1152C182.863 27.7932 183.01 28.2912 183.304 28.6092C183.604 28.9272 184.012 29.0862 184.528 29.0862C185.044 29.0862 185.446 28.9272 185.734 28.6092C186.028 28.2912 186.175 27.7932 186.175 27.1152V23.2722H186.805V27.1152C186.805 27.9732 186.598 28.6152 186.184 29.0412C185.77 29.4672 185.215 29.6802 184.519 29.6802C183.823 29.6802 183.268 29.4672 182.854 29.0412C182.44 28.6152 182.233 27.9732 182.233 27.1152V23.2722H182.863ZM192.01 28.0062C192.01 28.2942 191.941 28.5672 191.803 28.8252C191.671 29.0772 191.464 29.2842 191.182 29.4462C190.9 29.6022 190.549 29.6802 190.129 29.6802C189.721 29.6802 189.358 29.6052 189.04 29.4552C188.722 29.3052 188.467 29.1012 188.275 28.8432C188.089 28.5792 187.981 28.2852 187.951 27.9612H188.617C188.641 28.1472 188.71 28.3332 188.824 28.5192C188.938 28.7052 189.103 28.8612 189.319 28.9872C189.535 29.1072 189.796 29.1672 190.102 29.1672C190.504 29.1672 190.81 29.0592 191.02 28.8432C191.236 28.6272 191.344 28.3542 191.344 28.0242C191.344 27.7422 191.272 27.5142 191.128 27.3402C190.99 27.1602 190.816 27.0222 190.606 26.9262C190.402 26.8302 190.12 26.7252 189.76 26.6112C189.364 26.4852 189.043 26.3652 188.797 26.2512C188.557 26.1312 188.353 25.9572 188.185 25.7292C188.017 25.5012 187.933 25.1982 187.933 24.8202C187.933 24.3402 188.101 23.9502 188.437 23.6502C188.773 23.3502 189.235 23.2002 189.823 23.2002C190.423 23.2002 190.897 23.3472 191.245 23.6412C191.599 23.9352 191.809 24.3012 191.875 24.7392H191.2C191.146 24.4692 191.002 24.2292 190.768 24.0192C190.54 23.8092 190.225 23.7042 189.823 23.7042C189.451 23.7042 189.154 23.8002 188.932 23.9922C188.71 24.1842 188.599 24.4512 188.599 24.7932C188.599 25.0632 188.668 25.2822 188.806 25.4502C188.944 25.6182 189.112 25.7472 189.31 25.8372C189.514 25.9272 189.79 26.0292 190.138 26.1432C190.54 26.2692 190.864 26.3922 191.11 26.5122C191.362 26.6322 191.575 26.8122 191.749 27.0522C191.923 27.2922 192.01 27.6102 192.01 28.0062ZM193.798 23.2722V29.6172H193.159V23.2722H193.798ZM199.915 29.6172H199.276L195.802 24.3162V29.6172H195.163V23.2812H195.802L199.276 28.5912V23.2812H199.915V29.6172ZM201.919 23.7852V26.1792H204.394V26.6742H201.919V29.0952H204.664V29.6172H201.28V23.2722H204.664V23.7852H201.919ZM209.632 28.0062C209.632 28.2942 209.563 28.5672 209.425 28.8252C209.293 29.0772 209.086 29.2842 208.804 29.4462C208.522 29.6022 208.171 29.6802 207.751 29.6802C207.343 29.6802 206.98 29.6052 206.662 29.4552C206.344 29.3052 206.089 29.1012 205.897 28.8432C205.711 28.5792 205.603 28.2852 205.573 27.9612H206.239C206.263 28.1472 206.332 28.3332 206.446 28.5192C206.56 28.7052 206.725 28.8612 206.941 28.9872C207.157 29.1072 207.418 29.1672 207.724 29.1672C208.126 29.1672 208.432 29.0592 208.642 28.8432C208.858 28.6272 208.966 28.3542 208.966 28.0242C208.966 27.7422 208.894 27.5142 208.75 27.3402C208.612 27.1602 208.438 27.0222 208.228 26.9262C208.024 26.8302 207.742 26.7252 207.382 26.6112C206.986 26.4852 206.665 26.3652 206.419 26.2512C206.179 26.1312 205.975 25.9572 205.807 25.7292C205.639 25.5012 205.555 25.1982 205.555 24.8202C205.555 24.3402 205.723 23.9502 206.059 23.6502C206.395 23.3502 206.857 23.2002 207.445 23.2002C208.045 23.2002 208.519 23.3472 208.867 23.6412C209.221 23.9352 209.431 24.3012 209.497 24.7392H208.822C208.768 24.4692 208.624 24.2292 208.39 24.0192C208.162 23.8092 207.847 23.7042 207.445 23.7042C207.073 23.7042 206.776 23.8002 206.554 23.9922C206.332 24.1842 206.221 24.4512 206.221 24.7932C206.221 25.0632 206.29 25.2822 206.428 25.4502C206.566 25.6182 206.734 25.7472 206.932 25.8372C207.136 25.9272 207.412 26.0292 207.76 26.1432C208.162 26.2692 208.486 26.3922 208.732 26.5122C208.984 26.6322 209.197 26.8122 209.371 27.0522C209.545 27.2922 209.632 27.6102 209.632 28.0062ZM214.651 28.0062C214.651 28.2942 214.582 28.5672 214.444 28.8252C214.312 29.0772 214.105 29.2842 213.823 29.4462C213.541 29.6022 213.19 29.6802 212.77 29.6802C212.362 29.6802 211.999 29.6052 211.681 29.4552C211.363 29.3052 211.108 29.1012 210.916 28.8432C210.73 28.5792 210.622 28.2852 210.592 27.9612H211.258C211.282 28.1472 211.351 28.3332 211.465 28.5192C211.579 28.7052 211.744 28.8612 211.96 28.9872C212.176 29.1072 212.437 29.1672 212.743 29.1672C213.145 29.1672 213.451 29.0592 213.661 28.8432C213.877 28.6272 213.985 28.3542 213.985 28.0242C213.985 27.7422 213.913 27.5142 213.769 27.3402C213.631 27.1602 213.457 27.0222 213.247 26.9262C213.043 26.8302 212.761 26.7252 212.401 26.6112C212.005 26.4852 211.684 26.3652 211.438 26.2512C211.198 26.1312 210.994 25.9572 210.826 25.7292C210.658 25.5012 210.574 25.1982 210.574 24.8202C210.574 24.3402 210.742 23.9502 211.078 23.6502C211.414 23.3502 211.876 23.2002 212.464 23.2002C213.064 23.2002 213.538 23.3472 213.886 23.6412C214.24 23.9352 214.45 24.3012 214.516 24.7392H213.841C213.787 24.4692 213.643 24.2292 213.409 24.0192C213.181 23.8092 212.866 23.7042 212.464 23.7042C212.092 23.7042 211.795 23.8002 211.573 23.9922C211.351 24.1842 211.24 24.4512 211.24 24.7932C211.24 25.0632 211.309 25.2822 211.447 25.4502C211.585 25.6182 211.753 25.7472 211.951 25.8372C212.155 25.9272 212.431 26.0292 212.779 26.1432C213.181 26.2692 213.505 26.3922 213.751 26.5122C214.003 26.6322 214.216 26.8122 214.39 27.0522C214.564 27.2922 214.651 27.6102 214.651 28.0062Z" fill="white"/>
<path d="M12.9985 5.52979C13.6135 5.49278 19.1577 5.52979 19.1577 5.52979V0.102051H11.3042C11.3042 0.102051 5.83175 0.132988 3.78175 3.43799C1.9965 6.26647 1.01963 9.53033 0.95753 12.8745C0.85753 15.9015 0.95753 21.7515 0.95753 21.7515C0.95753 21.7515 0.680296 27.1031 2.8423 29.8921C5.0043 32.6811 6.91581 34.6706 10.8208 34.8296C14.7258 34.9886 25.021 34.8296 25.021 34.8296V14.9673H12.9956V20.2778H17.396V29.4126H12.9956C12.477 29.4214 11.9621 29.3276 11.48 29.1362C10.9979 28.9449 10.5585 28.6604 10.187 28.2983C9.26528 27.0152 8.74341 25.4876 8.68702 23.9087C8.44505 19.7208 8.44505 15.5233 8.68702 11.3354C9.06502 8.48745 9.43102 7.46439 10.187 6.67139C10.9766 5.9974 11.9626 5.59651 12.9985 5.52979Z" fill="white"/>
<path d="M52.7051 5.52979C52.0901 5.49278 46.5449 5.52979 46.5449 5.52979V0.102051H54.4023C54.4023 0.102051 59.8729 0.132988 61.9229 3.43799C63.7084 6.26621 64.6847 9.53034 64.7451 12.8745C64.8451 15.9015 64.7451 21.7515 64.7451 21.7515C64.7451 21.7515 65.0243 27.1031 62.8623 29.8921C60.7003 32.6811 58.7878 34.6706 54.8828 34.8296C50.9778 34.9886 40.6777 34.8296 40.6777 34.8296V9.54541H48.3076V29.4116H52.707C53.2257 29.4204 53.7405 29.3266 54.2227 29.1353C54.7048 28.9439 55.1452 28.6594 55.5166 28.2974C56.4396 27.0149 56.9616 25.4869 57.0166 23.9077C57.2586 19.7199 57.2586 15.5223 57.0166 11.3345C56.6396 8.48647 56.2726 7.46341 55.5166 6.67041C54.7271 5.99717 53.7405 5.59665 52.7051 5.52979Z" fill="white"/>
<path d="M20.8086 0.102051H44.7959V5.47314H36.3242V34.8726H29.2441V5.47314H20.8076L20.8086 0.102051Z" fill="#FADD37"/>
</svg>
