<svg width="171" height="41" viewBox="0 0 171 41" fill="none" xmlns="http://www.w3.org/2000/svg">
<path d="M52.166 28.6141H64.118V25.0141H56.418V11.4541H52.166V28.6141Z" fill="#340E0E"/>
<path d="M71.1994 26.2141C69.4994 26.2141 68.6074 24.7261 68.6074 22.4941C68.6074 20.2621 69.4954 18.7501 71.1994 18.7501C72.9034 18.7501 73.8154 20.2621 73.8154 22.4941C73.8154 24.7261 72.9064 26.2141 71.1994 26.2141ZM71.2234 28.9981C72.0902 29.0388 72.956 28.8989 73.7659 28.5874C74.5758 28.2758 75.3121 27.7993 75.9281 27.1882C76.5441 26.5771 77.0264 25.8446 77.3444 25.0372C77.6624 24.2298 77.8092 23.3652 77.7754 22.4981C77.7754 20.7572 77.0839 19.0876 75.8529 17.8566C74.6219 16.6256 72.9523 15.9341 71.2114 15.9341C69.4705 15.9341 67.801 16.6256 66.57 17.8566C65.339 19.0876 64.6474 20.7572 64.6474 22.4981C64.619 23.3658 64.7702 24.2301 65.0917 25.0366C65.4131 25.8431 65.8978 26.5745 66.5152 27.1849C67.1327 27.7952 67.8697 28.2713 68.6799 28.5834C69.4901 28.8954 70.3561 29.0366 71.2234 28.9981Z" fill="#340E0E"/>
<path d="M84.6302 32.862C86.2501 32.9664 87.853 32.4804 89.1422 31.494C89.6918 30.9715 90.1222 30.3364 90.4038 29.6323C90.6855 28.9281 90.8118 28.1715 90.7742 27.414V16.326H87.0302V17.646H86.9822C86.5973 17.0944 86.0777 16.6505 85.4728 16.3564C84.8679 16.0623 84.1977 15.928 83.5262 15.966C80.4782 15.966 78.3662 18.51 78.3662 22.11C78.3662 25.878 80.9342 27.942 83.6942 27.942C84.2916 27.9614 84.8854 27.8439 85.4304 27.5985C85.9753 27.3531 86.4569 26.9862 86.8382 26.526H86.9382V27.75C86.9847 28.0697 86.9559 28.3958 86.8541 28.7023C86.7524 29.0089 86.5805 29.2875 86.3521 29.5159C86.1237 29.7443 85.8451 29.9162 85.5385 30.018C85.2319 30.1197 84.9059 30.1485 84.5862 30.102C83.2862 30.102 82.6422 29.55 82.4262 28.902H78.6302C79.0142 31.47 81.2462 32.862 84.6302 32.862ZM84.6062 25.038C83.1422 25.038 82.1822 23.838 82.1822 21.99C82.1822 20.118 83.1422 18.918 84.6062 18.918C86.2382 18.918 87.1062 20.31 87.1062 21.966C87.1062 23.694 86.3062 25.038 84.6062 25.038Z" fill="#340E0E"/>
<path d="M98.4724 26.2141C96.7724 26.2141 95.8804 24.7261 95.8804 22.4941C95.8804 20.2621 96.7684 18.7501 98.4724 18.7501C100.176 18.7501 101.088 20.2621 101.088 22.4941C101.088 24.7261 100.176 26.2141 98.4724 26.2141ZM98.4964 28.9981C99.3632 29.0388 100.229 28.8989 101.039 28.5874C101.849 28.2758 102.585 27.7993 103.201 27.1882C103.817 26.5771 104.299 25.8446 104.617 25.0372C104.935 24.2298 105.082 23.3652 105.048 22.4981C105.048 20.7572 104.357 19.0876 103.126 17.8566C101.895 16.6256 100.225 15.9341 98.4844 15.9341C96.7435 15.9341 95.0739 16.6256 93.8429 17.8566C92.6119 19.0876 91.9204 20.7572 91.9204 22.4981C91.892 23.3658 92.0432 24.2301 92.3646 25.0366C92.6861 25.8431 93.1707 26.5745 93.7882 27.1849C94.4057 27.7952 95.1426 28.2713 95.9528 28.5834C96.7631 28.8954 97.629 29.0366 98.4964 28.9981Z" fill="#340E0E"/>
<path d="M106.19 28.6141H110.106V16.3261H106.194L106.19 28.6141ZM106.19 14.6221H110.106V11.4541H106.194L106.19 14.6221Z" fill="#340E0E"/>
<path d="M111.8 32.6701H115.712V27.3421H115.76C116.16 27.8829 116.686 28.3169 117.293 28.6057C117.9 28.8945 118.569 29.0293 119.24 28.9981C122.456 28.9981 124.592 26.4541 124.592 22.4701C124.592 18.7701 122.6 15.9701 119.336 15.9701C118.613 15.9539 117.896 16.1136 117.248 16.4355C116.6 16.7574 116.04 17.2319 115.616 17.8181H115.544V16.3261H111.8V32.6701ZM118.232 25.9701C116.552 25.9701 115.592 24.6021 115.592 22.6101C115.592 20.6181 116.456 19.1101 118.16 19.1101C119.84 19.1101 120.632 20.5021 120.632 22.6101C120.632 24.7021 119.72 25.9761 118.232 25.9761V25.9701Z" fill="#340E0E"/>
<path d="M130.961 28.9981C134.177 28.9981 136.553 27.6061 136.553 24.9181C136.553 21.7741 134.009 21.2181 131.853 20.8621C130.293 20.5741 128.901 20.4541 128.901 19.5901C128.901 18.8221 129.645 18.4621 130.601 18.4621C131.681 18.4621 132.425 18.7981 132.569 19.9021H136.169C135.977 17.4781 134.105 15.9661 130.625 15.9661C127.725 15.9661 125.325 17.3101 125.325 19.9021C125.325 22.7821 127.605 23.3581 129.741 23.7181C131.373 24.0061 132.861 24.1261 132.861 25.2301C132.861 26.0221 132.117 26.4541 130.941 26.4541C130.672 26.4916 130.398 26.4734 130.136 26.4007C129.874 26.328 129.629 26.2022 129.418 26.0312C129.206 25.8602 129.032 25.6477 128.906 25.4066C128.78 25.1656 128.705 24.9013 128.685 24.6301H124.985C125.106 27.3421 127.361 28.9981 130.961 28.9981Z" fill="#340E0E"/>
<path d="M141.867 28.9759C142.589 29.0058 143.306 28.8492 143.949 28.5213C144.592 28.1934 145.14 27.7053 145.539 27.1039H145.611V28.6159H149.355V16.3259H145.443V23.1899C145.484 23.4979 145.459 23.8109 145.369 24.1083C145.279 24.4056 145.127 24.6804 144.922 24.9143C144.718 25.1482 144.466 25.3359 144.183 25.4648C143.901 25.5937 143.594 25.6609 143.283 25.6619C142.035 25.6619 141.435 24.9179 141.435 23.5739V16.3259H137.547V24.3899C137.547 27.1259 139.035 28.9759 141.867 28.9759Z" fill="#340E0E"/>
<path d="M151.056 28.614H154.968V21.726C154.968 20.262 155.688 19.226 156.912 19.226C158.088 19.226 158.64 19.994 158.64 21.314V28.614H162.552V21.726C162.552 20.262 163.252 19.226 164.496 19.226C165.672 19.226 166.224 19.994 166.224 21.314V28.614H170.136V20.622C170.136 17.862 168.744 15.966 165.96 15.966C165.182 15.9495 164.414 16.141 163.734 16.5207C163.055 16.9004 162.49 17.4546 162.096 18.126H162.048C161.749 17.4656 161.261 16.9082 160.646 16.5239C160.032 16.1396 159.317 15.9456 158.592 15.966C157.838 15.9415 157.091 16.1258 156.435 16.4984C155.778 16.8711 155.238 17.4177 154.872 18.078H154.8V16.326H151.056V28.614Z" fill="#340E0E"/>
<path fill-rule="evenodd" clip-rule="evenodd" d="M20.9902 40.614C24.9459 40.614 28.8127 39.441 32.1016 37.2434C35.3906 35.0458 37.9541 31.9222 39.4678 28.2677C40.9816 24.6132 41.3776 20.5918 40.6059 16.7122C39.8342 12.8326 37.9294 9.26894 35.1324 6.47189C32.3353 3.67484 28.7717 1.77002 24.892 0.998317C21.0124 0.226613 16.9911 0.622679 13.3366 2.13643C9.68204 3.65018 6.55847 6.21363 4.36084 9.50262C2.16321 12.7916 0.990234 16.6584 0.990234 20.614C0.990234 25.9184 3.09737 31.0054 6.8481 34.7562C10.5988 38.5069 15.6859 40.614 20.9902 40.614ZM27.2292 9.93102C27.5292 8.85202 26.4862 8.21402 25.5292 8.89502L12.1832 18.404C11.1462 19.143 11.3092 20.614 12.4282 20.614H15.9432V20.587H22.7932L17.2112 22.556L14.7512 31.297C14.4512 32.376 15.4942 33.014 16.4512 32.333L29.7982 22.825C30.8352 22.086 30.6722 20.615 29.5532 20.615H24.2232L27.2292 9.93102Z" fill="#F15757"/>
</svg>
