<svg width="173" height="41" viewBox="0 0 173 41" fill="none" xmlns="http://www.w3.org/2000/svg">
<path d="M50.0264 29.6141H61.3794V26.3811H53.4904V11.2871H50.0264V29.6141Z" fill="#23216E"/>
<path d="M68.2008 29.9961C69.4703 30.0231 70.7234 29.7066 71.8278 29.0801C72.8684 28.4725 73.719 27.5866 74.2838 26.5221C74.8948 25.3574 75.2013 24.0571 75.1748 22.7421C75.2015 21.4367 74.8996 20.1454 74.2968 18.9871C73.7352 17.9164 72.8842 17.0249 71.8408 16.4141C70.731 15.8066 69.4866 15.4871 68.2215 15.4849C66.9563 15.4826 65.7108 15.7976 64.5988 16.4011C63.5583 17.0089 62.7078 17.8947 62.1428 18.9591C61.53 20.1232 61.2234 21.424 61.2518 22.7391C61.2265 24.0469 61.524 25.3407 62.1178 26.5061C62.6803 27.5684 63.5263 28.4538 64.5618 29.0641C65.6672 29.7005 66.9256 30.0228 68.2008 29.9961ZM68.2008 26.7631C67.7348 26.7922 67.2685 26.7092 66.8412 26.5209C66.4139 26.3326 66.0379 26.0447 65.7448 25.6811C65.1537 24.8186 64.8631 23.7854 64.9178 22.7411C64.8701 21.7156 65.1461 20.7011 65.7068 19.8411C65.9961 19.4609 66.3759 19.1592 66.8118 18.9636C67.2476 18.7679 67.7255 18.6846 68.2018 18.7211C68.671 18.6896 69.1408 18.7726 69.5707 18.963C70.0007 19.1534 70.3779 19.4455 70.6698 19.8141C71.2679 20.6691 71.5635 21.6992 71.5098 22.7411C71.5528 23.7715 71.2629 24.7884 70.6828 25.6411C70.3947 26.0194 70.0169 26.32 69.5836 26.5158C69.1503 26.7117 68.6751 26.7967 68.2008 26.7631Z" fill="#23216E"/>
<path d="M82.0221 29.996C82.6237 30.0017 83.2234 29.9247 83.8041 29.767C84.3326 29.6239 84.8378 29.4053 85.3041 29.118V30.505C85.3369 30.9639 85.1959 31.4184 84.9091 31.778C84.625 32.1348 84.2457 32.4039 83.8151 32.554C83.348 32.7338 82.8515 32.8244 82.3511 32.821C81.8824 32.8246 81.4198 32.7155 81.0021 32.503C80.6006 32.2968 80.2719 31.9726 80.0601 31.574L76.8531 33.127C77.396 34.0344 78.1746 34.7777 79.1061 35.278C80.0883 35.8312 81.1988 36.1164 82.3261 36.105C83.279 36.1135 84.2276 35.9763 85.1391 35.698C85.9505 35.4652 86.6988 35.0519 87.3281 34.489C87.9373 33.9358 88.3677 33.2133 88.5641 32.414C88.6402 32.1189 88.6913 31.8178 88.7171 31.514C88.7521 31.1969 88.7691 30.8781 88.7681 30.559V15.869H85.7381V16.633C85.2607 16.2625 84.7223 15.9782 84.1471 15.793C83.5198 15.5826 82.8616 15.4792 82.2001 15.487C80.9873 15.4588 79.7928 15.7862 78.7641 16.429C77.7829 17.0654 76.9961 17.9598 76.4901 19.014C75.9388 20.1785 75.665 21.4549 75.6901 22.743C75.6698 24.0202 75.9395 25.2853 76.4791 26.443C76.9744 27.494 77.7437 28.3921 78.7061 29.043C79.6899 29.6881 80.8459 30.0203 82.0221 29.996ZM82.5821 26.916C81.925 26.9443 81.2781 26.7467 80.7491 26.356C80.2621 25.9661 79.8959 25.4459 79.6931 24.856C79.4567 24.177 79.3403 23.462 79.3491 22.743C79.3399 22.0315 79.4606 21.3243 79.7051 20.656C79.9161 20.0562 80.296 19.5301 80.7991 19.141C81.3536 18.7423 82.0256 18.5406 82.7081 18.568C83.1651 18.5295 83.6239 18.617 84.0345 18.8212C84.4452 19.0254 84.792 19.3384 85.0371 19.726C85.5427 20.6481 85.7849 21.6915 85.7371 22.742C85.784 23.7982 85.5372 24.8467 85.0241 25.771C84.7581 26.1642 84.3906 26.4781 83.9607 26.6793C83.5307 26.8805 83.0544 26.9616 82.5821 26.914V26.916Z" fill="#23216E"/>
<path d="M96.9899 29.9961C98.2593 30.0231 99.5125 29.7066 100.617 29.0801C101.658 28.4726 102.508 27.5867 103.073 26.5221C103.684 25.3574 103.99 24.0571 103.964 22.7421C103.991 21.4366 103.689 20.1453 103.086 18.9871C102.524 17.9163 101.673 17.0247 100.63 16.4141C99.5201 15.8066 98.2757 15.4871 97.0105 15.4849C95.7454 15.4826 94.4998 15.7976 93.3879 16.4011C92.3474 17.009 91.4969 17.8948 90.9319 18.9591C90.319 20.1232 90.0124 21.424 90.0409 22.7391C90.0156 24.0469 90.313 25.3407 90.9069 26.5061C91.4694 27.5684 92.3154 28.4538 93.3509 29.0641C94.4563 29.7005 95.7146 30.0228 96.9899 29.9961ZM96.9899 26.7631C96.5238 26.7922 96.0576 26.7092 95.6303 26.5209C95.2029 26.3326 94.827 26.0447 94.5339 25.6811C93.9428 24.8185 93.6522 23.7854 93.7069 22.7411C93.6591 21.7156 93.9352 20.7011 94.4959 19.8411C94.7848 19.4607 95.1644 19.1587 95.6001 18.9627C96.0357 18.7667 96.5135 18.683 96.9899 18.7191C97.4594 18.6876 97.9295 18.7709 98.3596 18.9616C98.7898 19.1524 99.1671 19.445 99.4589 19.8141C100.057 20.6691 100.353 21.6992 100.299 22.7411C100.342 23.7715 100.052 24.7884 99.4719 25.6411C99.1837 26.0194 98.806 26.32 98.3727 26.5158C97.9394 26.7117 97.4642 26.7967 96.9899 26.7631Z" fill="#23216E"/>
<path d="M105.49 13.959H108.952V10.905H105.49V13.959ZM105.49 29.614H108.952V15.869H105.49V29.614Z" fill="#23216E"/>
<path d="M111.215 35.7229H114.702V29.1139C115.165 29.3997 115.666 29.6182 116.191 29.7629C116.778 29.9204 117.383 29.9974 117.991 29.9919C119.169 30.0167 120.328 29.6837 121.313 29.0369C122.274 28.3877 123.039 27.4888 123.527 26.4369C124.074 25.2814 124.348 24.0153 124.327 22.7369C124.352 21.4473 124.073 20.1699 123.513 19.0079C123.013 17.9525 122.228 17.0577 121.247 16.4239C120.218 15.7811 119.024 15.4536 117.811 15.4819C117.145 15.4746 116.483 15.578 115.851 15.7879C115.28 15.9747 114.746 16.2589 114.273 16.6279V15.8639H111.218L111.215 35.7229ZM117.426 26.9159C116.953 26.9614 116.477 26.879 116.047 26.6774C115.617 26.4758 115.249 26.1624 114.982 25.7699C114.469 24.8455 114.223 23.797 114.27 22.7409C114.222 21.6904 114.464 20.6469 114.97 19.7249C115.216 19.3386 115.563 19.0267 115.974 18.8227C116.384 18.6186 116.842 18.5302 117.299 18.5669C117.979 18.5368 118.649 18.7389 119.199 19.1399C119.709 19.5252 120.094 20.0521 120.306 20.6549C120.551 21.3231 120.672 22.0303 120.663 22.7419C120.672 23.4609 120.555 24.1759 120.319 24.8549C120.116 25.4448 119.75 25.965 119.263 26.3549C118.733 26.746 118.084 26.9434 117.426 26.9139V26.9159Z" fill="#23216E"/>
<path d="M130.596 29.9961C132.101 30.0843 133.591 29.6579 134.821 28.7871C135.321 28.3943 135.72 27.8882 135.986 27.3105C136.251 26.7329 136.376 26.1003 136.348 25.4651C136.372 24.9966 136.296 24.5284 136.125 24.0916C135.954 23.6549 135.692 23.2596 135.356 22.9321C134.384 22.1584 133.24 21.6302 132.021 21.3921C130.955 21.1208 130.157 20.9001 129.628 20.7301C129.255 20.6324 128.905 20.4625 128.597 20.2301C128.518 20.1519 128.456 20.0583 128.414 19.9551C128.373 19.8519 128.353 19.7413 128.356 19.6301C128.354 19.4387 128.407 19.2506 128.508 19.0883C128.609 18.9259 128.755 18.796 128.928 18.7141C129.407 18.4862 129.941 18.3982 130.468 18.4601C131.817 18.5621 132.555 19.1391 132.683 20.1911L136.221 19.5551C136.145 18.9594 135.942 18.387 135.626 17.8762C135.311 17.3655 134.889 16.9283 134.39 16.5941C133.206 15.8146 131.807 15.4273 130.39 15.4871C128.968 15.4137 127.563 15.8267 126.406 16.6581C125.924 17.0273 125.538 17.5064 125.279 18.0555C125.02 18.6045 124.896 19.2074 124.917 19.8141C124.895 20.2801 124.976 20.7452 125.154 21.1763C125.332 21.6075 125.603 21.9939 125.948 22.3081C127.004 23.0798 128.216 23.61 129.499 23.8611C130.492 24.1244 131.222 24.3364 131.688 24.4971C132.031 24.583 132.346 24.7551 132.604 24.9971C132.747 25.1824 132.818 25.4128 132.804 25.6461C132.811 25.8448 132.768 26.0421 132.679 26.2199C132.59 26.3977 132.458 26.5504 132.295 26.6641C131.859 26.9273 131.353 27.0515 130.844 27.0201C130.168 27.0476 129.502 26.8557 128.944 26.4731C128.449 26.1043 128.109 25.5647 127.989 24.9591L124.451 25.4941C124.534 26.1513 124.748 26.7852 125.08 27.3581C125.412 27.9311 125.857 28.4313 126.386 28.8291C127.628 29.6602 129.104 30.0694 130.596 29.9961Z" fill="#23216E"/>
<path d="M142.734 30.0209C143.627 30.0403 144.513 29.8699 145.334 29.5209C146.039 29.2136 146.672 28.7627 147.192 28.1969V29.6139H150.246V15.8689H146.759V22.8439C146.782 23.543 146.682 24.2407 146.466 24.9059C146.324 25.3534 146.075 25.7598 145.741 26.0899C145.469 26.3397 145.142 26.5228 144.786 26.6249C144.476 26.7141 144.155 26.7612 143.832 26.7649C143.219 26.8019 142.612 26.6252 142.114 26.2649C141.719 25.9394 141.42 25.5125 141.248 25.0299C141.075 24.559 140.968 24.0663 140.93 23.5659C140.896 23.0739 140.879 22.6709 140.879 22.3569V15.8689H137.366V23.5819C137.366 23.8112 137.383 24.1759 137.417 24.6759C137.462 25.2395 137.56 25.7977 137.71 26.3429C137.879 26.9643 138.149 27.5536 138.51 28.0869C138.92 28.6715 139.466 29.1475 140.101 29.4739C140.921 29.8696 141.825 30.0574 142.734 30.0209Z" fill="#23216E"/>
<path d="M152.248 29.614H155.735V21.29C155.704 20.5907 155.935 19.905 156.384 19.368C156.6 19.1206 156.869 18.9245 157.171 18.7941C157.473 18.6637 157.8 18.6021 158.128 18.614C158.462 18.597 158.795 18.6571 159.102 18.7896C159.408 18.9221 159.681 19.1234 159.897 19.378C160.363 19.9801 160.594 20.7312 160.546 21.491V29.614H164.008V21.29C163.977 20.5907 164.208 19.905 164.657 19.368C164.873 19.1207 165.142 18.9246 165.443 18.7942C165.745 18.6638 166.072 18.6022 166.4 18.614C166.734 18.5969 167.067 18.6569 167.374 18.7894C167.681 18.9219 167.953 19.1233 168.169 19.378C168.636 19.9798 168.867 20.731 168.819 21.491V29.614H172.28V20.578C172.342 19.2568 171.911 17.9598 171.071 16.938C170.622 16.4536 170.069 16.0764 169.455 15.8341C168.84 15.5918 168.179 15.4906 167.52 15.538C166.675 15.5293 165.841 15.7259 165.089 16.111C164.375 16.4723 163.765 17.0117 163.32 17.677C162.962 17.0299 162.434 16.4929 161.793 16.124C161.038 15.7107 160.185 15.5086 159.324 15.539C158.533 15.5313 157.749 15.7022 157.033 16.039C156.36 16.3436 155.767 16.8011 155.302 17.375V15.875H152.248V29.614Z" fill="#23216E"/>
<path d="M20.9902 0.614014C15.6859 0.614014 10.5988 2.72115 6.8481 6.47188C3.09737 10.2226 0.990234 15.3097 0.990234 20.614C6.29456 20.614 11.3816 18.5069 15.1324 14.7561C18.8831 11.0054 20.9902 5.91834 20.9902 0.614014Z" fill="#45D2B0"/>
<path d="M20.9902 40.614C26.2946 40.614 31.3816 38.5069 35.1324 34.7561C38.8831 31.0054 40.9902 25.9183 40.9902 20.614C35.6859 20.614 30.5988 22.7212 26.8481 26.4719C23.0974 30.2226 20.9902 35.3097 20.9902 40.614Z" fill="#45D2B0"/>
<path d="M20.9902 0.614014C26.2946 0.614014 31.3816 2.72115 35.1324 6.47188C38.8831 10.2226 40.9902 15.3097 40.9902 20.614C35.6859 20.614 30.5988 18.5069 26.8481 14.7561C23.0974 11.0054 20.9902 5.91834 20.9902 0.614014Z" fill="#23216E"/>
<path d="M20.9902 40.614C15.6859 40.614 10.5988 38.5069 6.8481 34.7561C3.09737 31.0054 0.990234 25.9183 0.990234 20.614C6.29456 20.614 11.3816 22.7212 15.1324 26.4719C18.8831 30.2226 20.9902 35.3097 20.9902 40.614Z" fill="#23216E"/>
</svg>
