<svg width="187" height="41" viewBox="0 0 187 41" fill="none" xmlns="http://www.w3.org/2000/svg">
<path fill-rule="evenodd" clip-rule="evenodd" d="M59.3433 3.13005C59.3451 2.79781 59.4124 2.46918 59.5412 2.16292C59.67 1.85667 59.8579 1.57879 60.0942 1.34516C60.3304 1.11153 60.6103 0.926713 60.918 0.801269C61.2257 0.675825 61.555 0.612209 61.8873 0.614053H66.3183C67.3164 0.61344 68.2845 0.9559 69.0603 1.58405L70.4063 2.67705L70.4403 2.70705L70.5333 2.67705C73.2706 1.96032 76.0987 1.65133 78.9263 1.76005C81.7538 1.65133 84.5819 1.96032 87.3193 2.67705L87.4123 2.70705L87.4463 2.67705L88.7943 1.58405C89.57 0.9559 90.5381 0.61344 91.5363 0.614053H95.9663C96.6366 0.611393 97.2805 0.874852 97.7568 1.34658C98.233 1.81831 98.5026 2.45975 98.5063 3.13005V4.68505C98.5055 5.28146 98.3794 5.87106 98.1362 6.41561C97.8929 6.96016 97.538 7.44751 97.0943 7.84605L96.0073 8.82605C95.475 9.30512 94.838 9.65305 94.1473 9.84205L93.8903 9.91305C94.8535 12.1168 95.3844 14.485 95.4543 16.8891C95.4543 25.1601 90.2803 28.7331 85.7213 31.8801C82.1313 34.3591 78.9213 36.5741 78.9213 40.6141C78.9213 36.5741 75.7123 34.3591 72.1213 31.8801C67.5623 28.7321 62.3883 25.1601 62.3883 16.8891C62.4581 14.485 62.9891 12.1168 63.9523 9.91305L63.7063 9.84305C63.0155 9.65405 62.3786 9.30612 61.8463 8.82705L60.7593 7.84705C60.3156 7.44851 59.9606 6.96116 59.7173 6.41661C59.4741 5.87206 59.348 5.28246 59.3473 4.68605L59.3433 3.13005ZM82.2333 23.6511C82.2313 23.8509 82.1872 24.0481 82.1038 24.2297C82.0204 24.4113 81.8996 24.5733 81.7493 24.7051C81.4264 24.9892 81.0103 25.1444 80.5803 25.1411C80.209 25.1428 79.8465 25.0277 79.5443 24.8121C80.0443 26.1291 81.3143 27.3771 83.2503 25.3701C84.9593 23.5051 83.1743 19.5701 81.4353 17.2391C81.1249 16.8775 80.74 16.5873 80.3071 16.3884C79.8741 16.1894 79.4032 16.0864 78.9268 16.0864C78.4503 16.0864 77.9794 16.1894 77.5464 16.3884C77.1135 16.5873 76.7286 16.8775 76.4183 17.2391C74.6793 19.5731 72.8943 23.5061 74.6033 25.3701C76.5393 27.3771 77.8123 26.1291 78.3093 24.8121C78.007 25.0277 77.6446 25.1428 77.2733 25.1411C76.8434 25.1428 76.428 24.9861 76.1063 24.7011C75.956 24.5693 75.8352 24.4073 75.7518 24.2257C75.6683 24.0441 75.6242 23.8469 75.6223 23.6471L82.2333 23.6511ZM72.5963 12.0091H67.9903L71.6203 14.8841C71.8232 15.055 72.0647 15.1738 72.324 15.2301C72.5832 15.2865 72.8523 15.2788 73.1079 15.2075C73.3635 15.1363 73.5978 15.0038 73.7905 14.8215C73.9832 14.6392 74.1285 14.4126 74.2138 14.1613C74.2991 13.9101 74.3218 13.6419 74.2799 13.3799C74.238 13.1179 74.1328 12.8702 73.9734 12.6581C73.814 12.446 73.6052 12.276 73.3652 12.1629C73.1253 12.0498 72.8613 11.997 72.5963 12.0091ZM85.2573 12.0091H89.8623L86.2323 14.8841C86.0294 15.055 85.7878 15.1738 85.5285 15.2301C85.2693 15.2865 85.0002 15.2788 84.7446 15.2075C84.4891 15.1363 84.2548 15.0038 84.062 14.8215C83.8693 14.6392 83.724 14.4126 83.6387 14.1613C83.5534 13.9101 83.5307 13.6419 83.5726 13.3799C83.6145 13.1179 83.7198 12.8702 83.8792 12.6581C84.0385 12.446 84.2473 12.276 84.4873 12.1629C84.7273 12.0498 84.9922 11.997 85.2573 12.0091Z" fill="#72B800"/>
<path d="M103.996 28.947H108.076V13.557H103.996V28.947ZM103.996 11.157H108.076V7.50098H103.996V11.157Z" fill="#355030"/>
<path d="M110.706 33.987H114.786V27.207H114.846C115.329 27.9293 115.994 28.5119 116.773 28.8963C117.552 29.2807 118.419 29.4533 119.286 29.397C123.246 29.397 125.946 26.247 125.946 21.267C125.946 16.467 123.336 13.137 119.256 13.137C118.366 13.1218 117.487 13.3277 116.696 13.7361C115.906 14.1445 115.229 14.7426 114.726 15.477H114.636V13.557H110.706V33.987ZM118.416 26.007C115.986 26.007 114.696 24.177 114.696 21.387C114.696 18.627 115.716 16.437 118.266 16.437C120.786 16.437 121.806 18.477 121.806 21.387C121.806 24.297 120.486 26.007 118.416 26.007Z" fill="#355030"/>
<path d="M134.084 29.4011C137.924 29.4011 140.564 27.5411 140.564 24.4511C140.564 20.8511 137.714 20.1311 135.134 19.5911C132.944 19.1411 130.904 19.0211 130.904 17.7011C130.904 16.5911 131.954 15.9911 133.544 15.9911C135.284 15.9911 136.334 16.5911 136.514 18.2411H140.204C139.904 15.1511 137.654 13.1411 133.604 13.1411C130.094 13.1411 127.334 14.7311 127.334 18.0611C127.334 21.4211 130.034 22.1711 132.794 22.7111C134.894 23.1311 136.844 23.2811 136.844 24.7511C136.844 25.8311 135.824 26.5211 134.024 26.5211C132.194 26.5211 130.934 25.7411 130.664 23.9711H126.884C127.124 27.2371 129.614 29.4011 134.084 29.4011Z" fill="#355030"/>
<path d="M156.055 28.9471V13.5571H151.975V22.4371C151.975 24.4771 150.805 25.9171 148.885 25.9171C147.145 25.9171 146.335 24.9271 146.335 23.1271V13.5571H142.285V23.8171C142.285 27.1771 144.205 29.3671 147.625 29.3671C148.49 29.4165 149.353 29.2374 150.127 28.8477C150.902 28.458 151.559 27.8715 152.035 27.1471H152.125V28.9471H156.055Z" fill="#355030"/>
<path d="M158.694 28.9471H162.774V20.0071C162.774 17.9671 163.884 16.6471 165.534 16.6471C167.034 16.6471 167.904 17.5471 167.904 19.2871V28.9471H171.984V20.0071C171.984 17.9671 173.034 16.6471 174.744 16.6471C176.244 16.6471 177.114 17.5471 177.114 19.2871V28.9471H181.194V18.6011C181.194 15.2411 179.364 13.1411 176.124 13.1411C175.185 13.1478 174.265 13.4006 173.454 13.8744C172.643 14.3482 171.971 15.0263 171.504 15.8411H171.444C171.075 15.0244 170.475 14.3337 169.718 13.8539C168.961 13.3741 168.08 13.1263 167.184 13.1411C166.285 13.1178 165.395 13.3365 164.609 13.7745C163.822 14.2126 163.168 14.8538 162.714 15.6311H162.624V13.5611H158.694V28.9471Z" fill="#355030"/>
<path d="M0.990234 28.947H5.07023V7.50098H0.990234V28.947Z" fill="#355030"/>
<path d="M15.0461 29.4011C16.1178 29.4314 17.1843 29.2411 18.1794 28.842C19.1746 28.443 20.0771 27.8437 20.831 27.0814C21.5849 26.3191 22.174 25.41 22.562 24.4105C22.9499 23.4109 23.1283 22.3424 23.0861 21.2711C23.1283 20.1997 22.9499 19.1312 22.562 18.1317C22.174 17.1322 21.5849 16.223 20.831 15.4607C20.0771 14.6984 19.1746 14.0991 18.1794 13.7001C17.1843 13.301 16.1178 13.1108 15.0461 13.1411C13.9743 13.1108 12.9078 13.301 11.9127 13.7001C10.9176 14.0991 10.0151 14.6984 9.26118 15.4607C8.50729 16.223 7.9181 17.1322 7.53017 18.1317C7.14224 19.1312 6.96385 20.1997 7.00607 21.2711C6.96385 22.3424 7.14224 23.4109 7.53017 24.4105C7.9181 25.41 8.50729 26.3191 9.26118 27.0814C10.0151 27.8437 10.9176 28.443 11.9127 28.842C12.9078 29.2411 13.9743 29.4314 15.0461 29.4011ZM15.0461 26.2811C12.5261 26.2811 11.1461 24.2711 11.1461 21.2711C11.1461 18.2711 12.5261 16.2311 15.0461 16.2311C17.5361 16.2311 18.9461 18.2711 18.9461 21.2711C18.9461 24.2711 17.5361 26.2771 15.0461 26.2771V26.2811Z" fill="#355030"/>
<path d="M31.7634 34.2009C33.7656 34.3326 35.7448 33.7121 37.3134 32.4609C37.9402 31.8607 38.4285 31.131 38.7446 30.3228C39.0606 29.5146 39.1967 28.6471 39.1434 27.7809V13.5569H35.2134V15.1769H35.1534C34.6688 14.5096 34.0256 13.9736 33.2818 13.6174C32.5379 13.2613 31.7171 13.0961 30.8934 13.1369C26.9934 13.1369 24.2334 16.0769 24.2334 20.6669C24.2334 25.3169 27.5934 28.0169 31.0134 28.0169C31.7767 28.0457 32.5364 27.8983 33.2335 27.5862C33.9306 27.274 34.5465 26.8055 35.0334 26.2169H35.1234V27.9009C35.1234 30.0009 34.0134 31.1109 31.7034 31.1109C29.8134 31.1109 28.9434 30.3609 28.6134 29.4009H24.5634C24.9834 32.4009 27.5634 34.2009 31.7634 34.2009ZM31.7034 24.7509C29.6034 24.7509 28.2234 23.2209 28.2234 20.6109C28.2234 18.0309 29.6034 16.4109 31.6734 16.4109C34.1334 16.4109 35.3334 18.3309 35.3334 20.5809C35.3334 22.8569 34.2834 24.7469 31.7064 24.7469L31.7034 24.7509Z" fill="#355030"/>
<path d="M49.0602 29.401C50.132 29.4312 51.1985 29.241 52.1936 28.8419C53.1887 28.4429 54.0912 27.8436 54.8451 27.0813C55.599 26.319 56.1882 25.4099 56.5761 24.4103C56.9641 23.4108 57.1424 22.3423 57.1002 21.271C57.1002 19.1386 56.2532 17.0936 54.7454 15.5858C53.2376 14.078 51.1926 13.231 49.0602 13.231C46.9279 13.231 44.8829 14.078 43.3751 15.5858C41.8673 17.0936 41.0202 19.1386 41.0202 21.271C40.978 22.3423 41.1564 23.4108 41.5443 24.4103C41.9323 25.4099 42.5214 26.319 43.2753 27.0813C44.0292 27.8436 44.9317 28.4429 45.9269 28.8419C46.922 29.241 47.9885 29.4312 49.0602 29.401ZM49.0602 26.281C46.5402 26.281 45.1602 24.271 45.1602 21.271C45.1602 18.271 46.5402 16.231 49.0602 16.231C51.5502 16.231 52.9602 18.271 52.9602 21.271C52.9602 24.271 51.5502 26.277 49.0602 26.277V26.281Z" fill="#355030"/>
<path d="M181.006 10.2012C181.006 9.86965 181.138 9.55171 181.372 9.31729C181.607 9.08287 181.925 8.95117 182.256 8.95117H184.756C185.088 8.95117 185.406 9.08287 185.64 9.31729C185.875 9.55171 186.006 9.86965 186.006 10.2012C186.006 10.5327 185.875 10.8506 185.64 11.0851C185.406 11.3195 185.088 11.4512 184.756 11.4512H182.256C182.092 11.4512 181.93 11.4188 181.778 11.356C181.626 11.2932 181.489 11.2011 181.372 11.0851C181.256 10.969 181.164 10.8312 181.102 10.6795C181.039 10.5279 181.006 10.3653 181.006 10.2012Z" fill="#355030"/>
</svg>
