<svg width="161" height="31" viewBox="0 0 161 31" fill="none" xmlns="http://www.w3.org/2000/svg">
<path d="M39.5566 1.88892H43.5506V23.6779H50.1236V27.3139H39.5566V1.88892Z" fill="#726BEA"/>
<path d="M57.6711 27.6721C56.8457 27.7269 56.018 27.6064 55.2424 27.3186C54.4669 27.0308 53.761 26.5821 53.1711 26.0021C52.0597 24.6895 51.4999 22.9975 51.6091 21.2811V7.91407C51.4999 6.19765 52.0597 4.50563 53.1711 3.19307C53.7609 2.61291 54.4668 2.1641 55.2424 1.87611C56.0179 1.58812 56.8456 1.46746 57.6711 1.52207C58.4966 1.46746 59.3244 1.58812 60.0999 1.87611C60.8755 2.1641 61.5813 2.61291 62.1711 3.19307C63.2836 4.50518 63.8445 6.19724 63.7361 7.91407V21.2811C63.8454 22.9975 63.2855 24.6895 62.1741 26.0021C61.584 26.5825 60.8776 27.0314 60.1015 27.3192C59.3253 27.607 58.4971 27.7273 57.6711 27.6721ZM57.6711 24.0411C59.0511 24.0411 59.7411 23.2057 59.7411 21.5351V7.66307C59.7411 5.9924 59.0511 5.15707 57.6711 5.15707C56.2911 5.15707 55.6011 5.9924 55.6011 7.66307V21.5351C55.6011 23.2057 56.2911 24.0411 57.6711 24.0411Z" fill="#726BEA"/>
<path d="M72.1035 27.672C71.2915 27.7278 70.4768 27.6111 69.7131 27.3295C68.9493 27.0478 68.2539 26.6077 67.6725 26.038C66.5798 24.7028 66.0347 23.0026 66.1475 21.281V7.91399C66.03 6.20279 66.5762 4.51209 67.6725 3.19299C68.2484 2.6137 68.9422 2.16496 69.7066 1.87717C70.4711 1.58939 71.2886 1.46928 72.1035 1.52499C72.9185 1.46981 73.7359 1.59046 74.5002 1.87877C75.2645 2.16707 75.958 2.61629 76.5335 3.19599C77.6292 4.51427 78.1753 6.20379 78.0585 7.91399V10.096H74.2815V7.66299C74.2815 5.99232 73.5915 5.15699 72.2115 5.15699C70.8315 5.15699 70.1415 5.99232 70.1415 7.66299V21.572C70.1415 23.218 70.8315 24.041 72.2115 24.041C73.5915 24.041 74.2815 23.218 74.2815 21.572V16.596H72.2815V12.965H78.0555V21.281C78.1683 23.0026 77.6233 24.7028 76.5305 26.038C75.9496 26.6072 75.2548 27.047 74.4918 27.3286C73.7289 27.6102 72.9149 27.7272 72.1035 27.672Z" fill="#726BEA"/>
<path d="M86.3971 27.6721C85.5716 27.7269 84.7439 27.6064 83.9684 27.3186C83.1928 27.0308 82.4869 26.5821 81.8971 26.0021C80.7856 24.6896 80.2257 22.9975 80.3351 21.2811V7.91407C80.2246 6.1996 80.7818 4.50888 81.8901 3.19607C83.1424 2.11744 84.7403 1.52417 86.3931 1.52417C88.0459 1.52417 89.6437 2.11744 90.8961 3.19607C92.0083 4.50722 92.5695 6.19811 92.4621 7.91407V21.2811C92.5714 22.9975 92.0116 24.6896 90.9001 26.0021C90.3099 26.5825 89.6035 27.0314 88.8274 27.3192C88.0513 27.607 87.223 27.7273 86.3971 27.6721ZM86.3971 24.0411C87.7771 24.0411 88.4671 23.2057 88.4671 21.5351V7.66307C88.4671 5.99241 87.7771 5.15707 86.3971 5.15707C85.0171 5.15707 84.3271 5.99241 84.3271 7.66307V21.5351C84.3271 23.2057 85.0171 24.0411 86.3971 24.0411Z" fill="#726BEA"/>
<path d="M95.1709 1.88892H99.1659V27.3139H95.1709V1.88892Z" fill="#4F46E5"/>
<path d="M102.157 1.88911H108.04C108.856 1.82704 109.675 1.93744 110.444 2.21312C111.214 2.48881 111.917 2.92358 112.507 3.48911C113.585 4.80247 114.118 6.47939 113.996 8.17411V10.6801C114.118 12.3748 113.585 14.0517 112.507 15.3651C111.917 15.9306 111.214 16.3654 110.444 16.6411C109.675 16.9168 108.856 17.0272 108.04 16.9651H106.152V27.3141H102.152L102.157 1.88911ZM108.04 13.3281C108.308 13.3499 108.577 13.3124 108.828 13.2181C109.079 13.1239 109.306 12.9754 109.493 12.7831C109.885 12.2493 110.066 11.5899 110.001 10.9311V7.91411C110.066 7.2553 109.885 6.59591 109.493 6.06211C109.306 5.86985 109.079 5.7213 108.828 5.62708C108.577 5.53287 108.308 5.49532 108.04 5.51711H106.152V13.3251L108.04 13.3281Z" fill="#4F46E5"/>
<path d="M121.5 27.6721C120.694 27.7302 119.884 27.6144 119.126 27.3325C118.368 27.0506 117.679 26.6092 117.106 26.0381C116.036 24.6925 115.505 22.9967 115.617 21.2811V19.8281H119.39V21.5711C119.39 23.2171 120.08 24.0401 121.46 24.0401C121.742 24.0621 122.026 24.0216 122.29 23.9213C122.555 23.8211 122.794 23.6635 122.99 23.4601C123.401 22.8929 123.595 22.1969 123.535 21.4991C123.558 20.5164 123.307 19.5468 122.809 18.6991C122.068 17.5875 121.161 16.5955 120.121 15.7571C118.768 14.6437 117.603 13.3194 116.671 11.8351C116.008 10.6092 115.671 9.23366 115.691 7.84008C115.581 6.15205 116.127 4.48674 117.216 3.19208C117.792 2.6131 118.486 2.16462 119.25 1.87701C120.014 1.58941 120.831 1.46939 121.646 1.52508C122.445 1.46684 123.247 1.5865 123.994 1.87544C124.742 2.16439 125.415 2.61543 125.967 3.19608C127.041 4.52472 127.573 6.20992 127.456 7.91408V8.97008H123.679V7.66308C123.739 6.99347 123.559 6.32453 123.171 5.77508C122.987 5.56462 122.757 5.39946 122.499 5.29245C122.241 5.18543 121.961 5.13945 121.682 5.15808C120.349 5.15808 119.682 5.96908 119.682 7.59108C119.68 8.50124 119.931 9.39408 120.408 10.1691C121.181 11.256 122.097 12.2332 123.132 13.0741C124.506 14.1798 125.674 15.5198 126.582 17.0321C127.236 18.325 127.561 19.7596 127.526 21.2081C127.643 22.9477 127.083 24.6652 125.964 26.0021C125.383 26.5836 124.684 27.0337 123.914 27.3218C123.143 27.6099 122.32 27.7293 121.5 27.6721Z" fill="#4F46E5"/>
<path d="M135.63 27.6719C134.818 27.7277 134.003 27.6109 133.239 27.3293C132.476 27.0477 131.78 26.6076 131.199 26.0379C130.106 24.7028 129.561 23.0025 129.674 21.2809V1.88892H133.669V21.5719C133.609 22.2415 133.789 22.9105 134.177 23.4599C134.375 23.6591 134.614 23.8139 134.877 23.914C135.14 24.0142 135.421 24.0574 135.702 24.0409C135.977 24.06 136.254 24.0178 136.511 23.9173C136.769 23.8169 137.001 23.6607 137.191 23.4599C137.602 22.921 137.797 22.2473 137.736 21.5719V1.88892H141.59V21.2809C141.703 23.0025 141.158 24.7028 140.065 26.0379C139.483 26.6081 138.787 27.0486 138.022 27.3302C137.258 27.6119 136.442 27.7283 135.63 27.6719Z" fill="#4F46E5"/>
<path d="M144.431 1.88892H150.131L152.673 20.0829H152.745L155.291 1.88892H160.991V27.3139H157.214V8.06192H157.142L154.236 27.3139H150.891L147.991 8.06192H147.919V27.3139H144.431V1.88892Z" fill="#4F46E5"/>
<path d="M0.990234 27.3139C2.159 27.3139 3.31632 27.0837 4.39612 26.6364C5.47591 26.1892 6.45704 25.5336 7.28348 24.7072C8.10993 23.8807 8.76549 22.8996 9.21276 21.8198C9.66003 20.74 9.89023 19.5827 9.89023 18.4139C9.89023 16.0535 8.95256 13.7897 7.28348 12.1207C5.61441 10.4516 3.35066 9.51392 0.990234 9.51392L0.990234 15.7429C1.34095 15.7429 1.68823 15.812 2.01223 15.9463C2.33623 16.0805 2.63062 16.2773 2.87856 16.5253C3.12651 16.7733 3.32316 17.0678 3.45728 17.3918C3.5914 17.7159 3.66037 18.0632 3.66023 18.4139C3.65917 19.1214 3.3774 19.7994 2.8768 20.2993C2.37619 20.7992 1.69767 21.0799 0.990234 21.0799L0.990234 27.3139Z" fill="#726BEA"/>
<path d="M30.6513 12.4789C28.0513 11.6576 25.2841 11.5162 22.6138 12.0683C19.9436 12.6204 17.4594 13.8475 15.3982 15.6326C13.337 17.4177 11.7677 19.7012 10.8399 22.2652C9.91205 24.8292 9.65676 27.5882 10.0983 30.2789H20.0043C19.3796 28.8817 19.2782 27.3065 19.7185 25.8407C20.1589 24.3749 21.1116 23.1164 22.4028 22.2947C23.694 21.4731 25.2377 21.1431 26.752 21.3651C28.2663 21.5871 29.6503 22.3462 30.6513 23.5039V12.4789Z" fill="#A5B4FC"/>
<path d="M2.55566 0.614014C2.92089 3.87695 4.47573 6.89087 6.92301 9.07969C9.37029 11.2685 12.5384 12.4787 15.8217 12.479C19.1055 12.4795 22.2743 11.2696 24.7222 9.08069C27.1701 6.8918 28.7254 3.87746 29.0907 0.614014L19.5417 0.614014C19.2447 1.35815 18.7313 1.99612 18.068 2.44552C17.4047 2.89492 16.6219 3.1351 15.8207 3.13501C15.0196 3.1349 14.237 2.89463 13.5739 2.44524C12.9108 1.99586 12.3976 1.35799 12.1007 0.614014L2.55566 0.614014Z" fill="#4F46E5"/>
</svg>
