<svg width="301" height="46" viewBox="0 0 301 46" fill="none" xmlns="http://www.w3.org/2000/svg">
<path d="M107.182 23.716C103.528 23.716 100.792 20.818 100.792 17.326C100.792 13.798 103.564 10.882 107.11 10.882C108.892 10.882 110.476 11.602 111.556 12.736L109.972 14.122C109.234 13.384 108.226 12.916 107.11 12.916C104.788 12.916 103.006 14.932 103.006 17.326C103.006 19.684 104.77 21.736 107.146 21.736C108.982 21.736 110.674 20.548 110.674 18.946H107.128V17.11H113.068C113.068 21.628 110.638 23.716 107.182 23.716ZM125.883 23.5H123.561L122.481 20.458H117.603L116.541 23.5H114.201L118.863 11.098H121.239L125.883 23.5ZM120.051 13.51L118.269 18.55H121.815L120.051 13.51ZM138.17 23.5H135.848L134.768 20.458H129.89L128.828 23.5H126.488L131.15 11.098H133.526L138.17 23.5ZM132.338 13.51L130.556 18.55H134.102L132.338 13.51ZM143.944 23.716C141.298 23.716 139.516 22.024 139.516 19.918H141.694C141.712 20.89 142.63 21.772 143.998 21.772C145.258 21.772 146.068 20.998 146.068 20.026C146.068 19.162 145.33 18.658 144.286 18.37L142.738 17.938C140.074 17.254 139.606 15.652 139.606 14.572C139.606 12.376 141.532 10.882 143.818 10.882C146.086 10.882 147.868 12.286 147.868 14.608H145.69C145.69 13.582 144.916 12.844 143.764 12.844C142.702 12.844 141.82 13.564 141.82 14.536C141.82 14.878 141.928 15.598 143.35 15.976L144.826 16.408C146.77 16.948 148.264 17.956 148.264 19.936C148.264 22.204 146.374 23.716 143.944 23.716ZM160.494 19.81L163.248 11.098H165.606L161.412 23.5H159.63L157.668 16.426L155.742 23.5H153.942L149.766 11.098H152.124L154.86 19.774L156.804 12.808H158.55L160.494 19.81ZM177.525 23.5H175.203L174.123 20.458H169.245L168.183 23.5H165.843L170.505 11.098H172.881L177.525 23.5ZM171.693 13.51L169.911 18.55H173.457L171.693 13.51ZM186.715 19.378V11.098H188.911V23.5H186.913L181.963 15.148V23.5H179.767V11.098H181.837L186.715 19.378ZM192.792 11.098H197.652C201.198 11.098 203.268 13.798 203.268 17.326C203.268 20.836 201.198 23.5 197.652 23.5H192.792V11.098ZM194.988 21.538H197.652C199.902 21.538 201.054 19.63 201.054 17.326C201.054 15.004 199.902 13.06 197.652 13.06H194.988V21.538ZM210.14 23.716C207.494 23.716 205.712 22.024 205.712 19.918H207.89C207.908 20.89 208.826 21.772 210.194 21.772C211.454 21.772 212.264 20.998 212.264 20.026C212.264 19.162 211.526 18.658 210.482 18.37L208.934 17.938C206.27 17.254 205.802 15.652 205.802 14.572C205.802 12.376 207.728 10.882 210.014 10.882C212.282 10.882 214.064 12.286 214.064 14.608H211.886C211.886 13.582 211.112 12.844 209.96 12.844C208.898 12.844 208.016 13.564 208.016 14.536C208.016 14.878 208.124 15.598 209.546 15.976L211.022 16.408C212.966 16.948 214.46 17.956 214.46 19.936C214.46 22.204 212.57 23.716 210.14 23.716ZM221.368 15.922L224.662 11.098H227.272L222.484 17.866V23.5H220.27V17.848L215.518 11.098H218.11L221.368 15.922ZM232.867 23.716C230.221 23.716 228.439 22.024 228.439 19.918H230.617C230.635 20.89 231.553 21.772 232.921 21.772C234.181 21.772 234.991 20.998 234.991 20.026C234.991 19.162 234.253 18.658 233.209 18.37L231.661 17.938C228.997 17.254 228.529 15.652 228.529 14.572C228.529 12.376 230.455 10.882 232.741 10.882C235.009 10.882 236.791 12.286 236.791 14.608H234.613C234.613 13.582 233.839 12.844 232.687 12.844C231.625 12.844 230.743 13.564 230.743 14.536C230.743 14.878 230.851 15.598 232.273 15.976L233.749 16.408C235.693 16.948 237.187 17.956 237.187 19.936C237.187 22.204 235.297 23.716 232.867 23.716ZM238.798 11.098H248.086V13.06H244.54V23.5H242.344V13.06H238.798V11.098ZM252.922 18.406V21.538H258.538V23.5H250.744V11.098H258.358V13.06H252.922V16.408H257.674V18.406H252.922ZM274.455 11.098L275.967 23.5H273.771L272.781 15.166L269.433 22.096H267.651L264.285 15.184L263.277 23.5H261.081L262.593 11.098H264.501L268.533 19.63L272.547 11.098H274.455ZM281.362 18.406V21.538H286.978V23.5H279.184V11.098H286.798V13.06H281.362V16.408H286.114V18.406H281.362ZM297.135 19.378V11.098H299.331V23.5H297.333L292.383 15.148V23.5H290.187V11.098H292.257L297.135 19.378Z" fill="#2F2F2F"/>
<path d="M102.067 31.335V36.834C102.067 37.7353 102.266 38.4027 102.665 38.836C103.064 39.2607 103.614 39.473 104.316 39.473C105.009 39.473 105.551 39.2563 105.941 38.823C106.331 38.3897 106.526 37.7267 106.526 36.834V31.335H107.709V36.834C107.709 38.082 107.397 39.0223 106.773 39.655C106.158 40.279 105.33 40.591 104.29 40.591C103.259 40.591 102.431 40.279 101.807 39.655C101.192 39.0223 100.884 38.082 100.884 36.834V31.335H102.067ZM120.815 31.335L118.488 40.5H117.045L114.926 33.012L112.807 40.5H111.364L109.024 31.335H110.337L112.092 39.122L114.263 31.335H115.576L117.747 39.096L119.515 31.335H120.815ZM126.011 31.335L128.806 39.187L131.64 31.335H132.927L129.56 40.5H128.065L124.711 31.335H126.011ZM135.305 32.297V35.43H138.789V36.34H135.305V39.538H139.179V40.5H134.122V31.335H139.179V32.297H135.305ZM141.881 31.335V40.5H140.698V31.335H141.881ZM144.966 39.577H148.216V40.5H143.783V31.335H144.966V39.577ZM150.603 31.335V40.5H149.42V31.335H150.603ZM156.665 31.244C157.731 31.244 158.623 31.5083 159.343 32.037C160.071 32.5657 160.56 33.285 160.812 34.195H159.564C159.347 33.6403 158.983 33.194 158.472 32.856C157.969 32.518 157.371 32.349 156.678 32.349C156.054 32.349 155.495 32.4963 155.001 32.791C154.507 33.077 154.117 33.4887 153.831 34.026C153.553 34.5633 153.415 35.196 153.415 35.924C153.415 36.6693 153.558 37.315 153.844 37.861C154.13 38.3983 154.524 38.8143 155.027 39.109C155.538 39.395 156.123 39.538 156.782 39.538C157.345 39.538 157.861 39.4167 158.329 39.174C158.797 38.9313 159.178 38.5803 159.473 38.121C159.776 37.653 159.958 37.107 160.019 36.483H156.418V35.599H161.02V36.691C160.942 37.419 160.716 38.0777 160.344 38.667C159.971 39.2563 159.468 39.7243 158.836 40.071C158.203 40.4177 157.484 40.591 156.678 40.591C155.794 40.591 155.014 40.396 154.338 40.006C153.662 39.6073 153.133 39.057 152.752 38.355C152.379 37.6443 152.193 36.834 152.193 35.924C152.193 35.014 152.379 34.208 152.752 33.506C153.133 32.7953 153.662 32.2407 154.338 31.842C155.014 31.4433 155.789 31.244 156.665 31.244ZM169.656 31.335V40.5H168.46V36.262H163.806V40.5H162.623V31.335H163.806V35.3H168.46V31.335H169.656ZM172.731 32.297V35.43H176.215V36.34H172.731V39.538H176.605V40.5H171.548V31.335H176.605V32.297H172.731ZM179.307 31.335V40.5H178.124V31.335H179.307ZM188.931 35.911C188.931 36.8383 188.744 37.6487 188.372 38.342C187.999 39.0267 187.449 39.5597 186.721 39.941C186.001 40.3137 185.135 40.5 184.121 40.5H181.209V31.335H184.121C185.135 31.335 186.001 31.5213 186.721 31.894C187.449 32.258 187.999 32.7867 188.372 33.48C188.744 34.1647 188.931 34.975 188.931 35.911ZM184.03 39.434C185.226 39.434 186.14 39.1263 186.773 38.511C187.405 37.8957 187.722 37.029 187.722 35.911C187.722 34.793 187.405 33.9263 186.773 33.311C186.149 32.687 185.234 32.375 184.03 32.375H182.392V39.434H184.03ZM194.922 31.335V40.5H193.739V31.335H194.922ZM202.622 38.121C202.622 38.5543 202.518 38.9573 202.31 39.33C202.102 39.7027 201.786 40.006 201.361 40.24C200.936 40.474 200.412 40.591 199.788 40.591C199.181 40.591 198.64 40.4827 198.163 40.266C197.695 40.0407 197.318 39.7373 197.032 39.356C196.755 38.966 196.594 38.524 196.551 38.03H197.812C197.838 38.29 197.925 38.5457 198.072 38.797C198.228 39.0397 198.445 39.2433 198.722 39.408C199.008 39.564 199.35 39.642 199.749 39.642C200.269 39.642 200.668 39.5033 200.945 39.226C201.222 38.9487 201.361 38.5933 201.361 38.16C201.361 37.7873 201.261 37.484 201.062 37.25C200.871 37.016 200.633 36.834 200.347 36.704C200.061 36.5653 199.671 36.418 199.177 36.262C198.596 36.0713 198.128 35.8937 197.773 35.729C197.426 35.5557 197.127 35.3 196.876 34.962C196.633 34.624 196.512 34.1777 196.512 33.623C196.512 33.1463 196.625 32.726 196.85 32.362C197.084 31.998 197.413 31.7163 197.838 31.517C198.271 31.3177 198.778 31.218 199.359 31.218C200.26 31.218 200.975 31.439 201.504 31.881C202.033 32.3143 202.34 32.869 202.427 33.545H201.153C201.084 33.181 200.897 32.8603 200.594 32.583C200.291 32.3057 199.879 32.167 199.359 32.167C198.882 32.167 198.501 32.2927 198.215 32.544C197.929 32.7867 197.786 33.1333 197.786 33.584C197.786 33.9393 197.877 34.2297 198.059 34.455C198.25 34.6717 198.484 34.845 198.761 34.975C199.038 35.0963 199.42 35.235 199.905 35.391C200.494 35.5817 200.967 35.7637 201.322 35.937C201.686 36.1103 201.994 36.3747 202.245 36.73C202.496 37.0767 202.622 37.5403 202.622 38.121ZM211.624 31.218C212.473 31.218 213.236 31.4173 213.912 31.816C214.596 32.2147 215.134 32.7737 215.524 33.493C215.914 34.2037 216.109 35.0097 216.109 35.911C216.109 36.8123 215.914 37.6227 215.524 38.342C215.134 39.0527 214.596 39.6073 213.912 40.006C213.236 40.4047 212.473 40.604 211.624 40.604C210.774 40.604 210.003 40.4047 209.31 40.006C208.625 39.6073 208.088 39.0527 207.698 38.342C207.308 37.6227 207.113 36.8123 207.113 35.911C207.113 35.0097 207.308 34.2037 207.698 33.493C208.088 32.7737 208.625 32.2147 209.31 31.816C210.003 31.4173 210.774 31.218 211.624 31.218ZM211.624 32.323C210.991 32.323 210.423 32.4703 209.921 32.765C209.427 33.051 209.037 33.467 208.751 34.013C208.473 34.5503 208.335 35.183 208.335 35.911C208.335 36.6303 208.473 37.263 208.751 37.809C209.037 38.355 209.427 38.7753 209.921 39.07C210.423 39.356 210.991 39.499 211.624 39.499C212.248 39.499 212.807 39.3517 213.301 39.057C213.803 38.7623 214.193 38.3463 214.471 37.809C214.757 37.263 214.9 36.6303 214.9 35.911C214.9 35.183 214.757 34.5503 214.471 34.013C214.193 33.467 213.803 33.051 213.301 32.765C212.807 32.4703 212.248 32.323 211.624 32.323ZM224.832 40.5H223.649L218.891 33.259V40.5H217.708V31.335H218.891L223.649 38.589V31.335H224.832V40.5ZM227.631 39.525H232.246V40.5H226.305V39.564L230.842 32.31H226.422V31.335H232.168V32.271L227.631 39.525ZM234.912 32.297V35.43H238.396V36.34H234.912V39.538H238.786V40.5H233.729V31.335H238.786V32.297H234.912ZM247.989 35.755C248.553 35.8763 249.008 36.145 249.354 36.561C249.71 36.977 249.887 37.4667 249.887 38.03C249.887 38.7753 249.632 39.3733 249.12 39.824C248.618 40.2747 247.885 40.5 246.923 40.5H243.517V31.335H246.871C247.79 31.335 248.488 31.5387 248.964 31.946C249.441 32.3533 249.679 32.9123 249.679 33.623C249.679 34.2123 249.519 34.689 249.198 35.053C248.886 35.417 248.483 35.651 247.989 35.755ZM244.7 35.352H246.676C247.257 35.352 247.699 35.2177 248.002 34.949C248.314 34.6803 248.47 34.3033 248.47 33.818C248.47 33.35 248.319 32.9817 248.015 32.713C247.712 32.4443 247.248 32.31 246.624 32.31H244.7V35.352ZM246.702 39.512C247.326 39.512 247.807 39.369 248.145 39.083C248.492 38.797 248.665 38.394 248.665 37.874C248.665 37.3627 248.488 36.964 248.132 36.678C247.786 36.3833 247.3 36.236 246.676 36.236H244.7V39.512H246.702ZM252.481 31.335V36.834C252.481 37.7353 252.68 38.4027 253.079 38.836C253.478 39.2607 254.028 39.473 254.73 39.473C255.423 39.473 255.965 39.2563 256.355 38.823C256.745 38.3897 256.94 37.7267 256.94 36.834V31.335H258.123V36.834C258.123 38.082 257.811 39.0223 257.187 39.655C256.572 40.279 255.744 40.591 254.704 40.591C253.673 40.591 252.845 40.279 252.221 39.655C251.606 39.0223 251.298 38.082 251.298 36.834V31.335H252.481ZM265.756 38.121C265.756 38.5543 265.652 38.9573 265.444 39.33C265.236 39.7027 264.919 40.006 264.495 40.24C264.07 40.474 263.546 40.591 262.922 40.591C262.315 40.591 261.773 40.4827 261.297 40.266C260.829 40.0407 260.452 39.7373 260.166 39.356C259.888 38.966 259.728 38.524 259.685 38.03H260.946C260.972 38.29 261.058 38.5457 261.206 38.797C261.362 39.0397 261.578 39.2433 261.856 39.408C262.142 39.564 262.484 39.642 262.883 39.642C263.403 39.642 263.801 39.5033 264.079 39.226C264.356 38.9487 264.495 38.5933 264.495 38.16C264.495 37.7873 264.395 37.484 264.196 37.25C264.005 37.016 263.767 36.834 263.481 36.704C263.195 36.5653 262.805 36.418 262.311 36.262C261.73 36.0713 261.262 35.8937 260.907 35.729C260.56 35.5557 260.261 35.3 260.01 34.962C259.767 34.624 259.646 34.1777 259.646 33.623C259.646 33.1463 259.758 32.726 259.984 32.362C260.218 31.998 260.547 31.7163 260.972 31.517C261.405 31.3177 261.912 31.218 262.493 31.218C263.394 31.218 264.109 31.439 264.638 31.881C265.166 32.3143 265.474 32.869 265.561 33.545H264.287C264.217 33.181 264.031 32.8603 263.728 32.583C263.424 32.3057 263.013 32.167 262.493 32.167C262.016 32.167 261.635 32.2927 261.349 32.544C261.063 32.7867 260.92 33.1333 260.92 33.584C260.92 33.9393 261.011 34.2297 261.193 34.455C261.383 34.6717 261.617 34.845 261.895 34.975C262.172 35.0963 262.553 35.235 263.039 35.391C263.628 35.5817 264.1 35.7637 264.456 35.937C264.82 36.1103 265.127 36.3747 265.379 36.73C265.63 37.0767 265.756 37.5403 265.756 38.121ZM268.529 31.335V40.5H267.346V31.335H268.529ZM277.555 40.5H276.372L271.614 33.259V40.5H270.431V31.335H271.614L276.372 38.589V31.335H277.555V40.5ZM280.641 32.297V35.43H284.125V36.34H280.641V39.538H284.515V40.5H279.458V31.335H284.515V32.297H280.641ZM291.832 38.121C291.832 38.5543 291.728 38.9573 291.52 39.33C291.312 39.7027 290.996 40.006 290.571 40.24C290.146 40.474 289.622 40.591 288.998 40.591C288.391 40.591 287.85 40.4827 287.373 40.266C286.905 40.0407 286.528 39.7373 286.242 39.356C285.965 38.966 285.804 38.524 285.761 38.03H287.022C287.048 38.29 287.135 38.5457 287.282 38.797C287.438 39.0397 287.655 39.2433 287.932 39.408C288.218 39.564 288.56 39.642 288.959 39.642C289.479 39.642 289.878 39.5033 290.155 39.226C290.432 38.9487 290.571 38.5933 290.571 38.16C290.571 37.7873 290.471 37.484 290.272 37.25C290.081 37.016 289.843 36.834 289.557 36.704C289.271 36.5653 288.881 36.418 288.387 36.262C287.806 36.0713 287.338 35.8937 286.983 35.729C286.636 35.5557 286.337 35.3 286.086 34.962C285.843 34.624 285.722 34.1777 285.722 33.623C285.722 33.1463 285.835 32.726 286.06 32.362C286.294 31.998 286.623 31.7163 287.048 31.517C287.481 31.3177 287.988 31.218 288.569 31.218C289.47 31.218 290.185 31.439 290.714 31.881C291.243 32.3143 291.55 32.869 291.637 33.545H290.363C290.294 33.181 290.107 32.8603 289.804 32.583C289.501 32.3057 289.089 32.167 288.569 32.167C288.092 32.167 287.711 32.2927 287.425 32.544C287.139 32.7867 286.996 33.1333 286.996 33.584C286.996 33.9393 287.087 34.2297 287.269 34.455C287.46 34.6717 287.694 34.845 287.971 34.975C288.248 35.0963 288.63 35.235 289.115 35.391C289.704 35.5817 290.177 35.7637 290.532 35.937C290.896 36.1103 291.204 36.3747 291.455 36.73C291.706 37.0767 291.832 37.5403 291.832 38.121ZM299.221 38.121C299.221 38.5543 299.117 38.9573 298.909 39.33C298.701 39.7027 298.384 40.006 297.96 40.24C297.535 40.474 297.011 40.591 296.387 40.591C295.78 40.591 295.238 40.4827 294.762 40.266C294.294 40.0407 293.917 39.7373 293.631 39.356C293.353 38.966 293.193 38.524 293.15 38.03H294.411C294.437 38.29 294.523 38.5457 294.671 38.797C294.827 39.0397 295.043 39.2433 295.321 39.408C295.607 39.564 295.949 39.642 296.348 39.642C296.868 39.642 297.266 39.5033 297.544 39.226C297.821 38.9487 297.96 38.5933 297.96 38.16C297.96 37.7873 297.86 37.484 297.661 37.25C297.47 37.016 297.232 36.834 296.946 36.704C296.66 36.5653 296.27 36.418 295.776 36.262C295.195 36.0713 294.727 35.8937 294.372 35.729C294.025 35.5557 293.726 35.3 293.475 34.962C293.232 34.624 293.111 34.1777 293.111 33.623C293.111 33.1463 293.223 32.726 293.449 32.362C293.683 31.998 294.012 31.7163 294.437 31.517C294.87 31.3177 295.377 31.218 295.958 31.218C296.859 31.218 297.574 31.439 298.103 31.881C298.631 32.3143 298.939 32.869 299.026 33.545H297.752C297.682 33.181 297.496 32.8603 297.193 32.583C296.889 32.3057 296.478 32.167 295.958 32.167C295.481 32.167 295.1 32.2927 294.814 32.544C294.528 32.7867 294.385 33.1333 294.385 33.584C294.385 33.9393 294.476 34.2297 294.658 34.455C294.848 34.6717 295.082 34.845 295.36 34.975C295.637 35.0963 296.018 35.235 296.504 35.391C297.093 35.5817 297.565 35.7637 297.921 35.937C298.285 36.1103 298.592 36.3747 298.844 36.73C299.095 37.0767 299.221 37.5403 299.221 38.121Z" fill="#2F2F2F"/>
<path d="M15.5137 7.12878C16.3047 7.08178 23.4219 7.12878 23.4219 7.12878V0.161987H13.3379C13.3379 0.161987 6.31267 0.201237 3.67967 4.44324C1.38775 8.07407 0.134068 12.2626 0.0546667 16.5555C-0.0683333 20.4425 0.0546667 27.9559 0.0546667 27.9559C0.0546667 27.9559 -0.302365 34.8251 2.47264 38.4052C5.24764 41.9852 7.70278 44.542 12.7168 44.745C17.7308 44.948 30.9521 44.745 30.9521 44.745V19.245H15.5137V26.0614H21.1592V37.7899H15.5137C14.848 37.8009 14.1861 37.6802 13.5674 37.4344C12.9486 37.1887 12.3849 36.823 11.9082 36.3583C10.7254 34.7107 10.0562 32.7495 9.98435 30.7225C9.85135 28.8945 9.50035 18.239 9.98435 14.58C10.4684 10.921 10.9392 9.60868 11.9082 8.59167C12.9206 7.72799 14.1857 7.21491 15.5137 7.12878Z" fill="#2F2F2F"/>
<path d="M66.4922 7.12878C65.7012 7.08178 58.584 7.12878 58.584 7.12878V0.161987H68.6699C68.6699 0.161987 75.6932 0.201237 78.3262 4.44324C80.6193 8.0734 81.8725 12.2625 81.9492 16.5555C82.0722 20.4425 81.9492 27.9559 81.9492 27.9559C81.9492 27.9559 82.3082 34.8251 79.5332 38.4052C76.7582 41.9852 74.303 44.542 69.291 44.745C64.279 44.948 51.0527 44.745 51.0527 44.745V12.2821H60.8486V37.7899H66.4932C67.1588 37.8009 67.8198 37.6802 68.4385 37.4344C69.0572 37.1887 69.6219 36.823 70.0986 36.3583C71.2831 34.7115 71.9525 32.7498 72.0225 30.7225C72.1555 28.8945 72.5045 18.239 72.0225 14.58C71.5405 10.921 71.0676 9.60868 70.0986 8.59167C69.0858 7.72804 67.8205 7.21499 66.4922 7.12878Z" fill="#2F2F2F"/>
<path d="M25.54 0.161987H56.3398V7.05652H45.4648V44.8065H36.375V7.05652H25.543L25.54 0.161987Z" fill="#F4DC4A"/>
</svg>
