<svg width="80" height="84" viewBox="0 0 80 84" fill="none" xmlns="http://www.w3.org/2000/svg">
<path d="M77.5 42C77.5 28.7188 70.3125 16.375 58.75 9.65625C47.0312 2.9375 32.8125 2.9375 21.25 9.65625C9.53125 16.375 2.5 28.7188 2.5 42C2.5 55.4375 9.53125 67.7812 21.25 74.5C32.8125 81.2188 47.0312 81.2188 58.75 74.5C70.3125 67.7812 77.5 55.4375 77.5 42ZM0 42C0 27.7812 7.5 14.6562 20 7.46875C32.3438 0.28125 47.5 0.28125 60 7.46875C72.3438 14.6562 80 27.7812 80 42C80 56.375 72.3438 69.5 60 76.6875C47.5 83.875 32.3438 83.875 20 76.6875C7.5 69.5 0 56.375 0 42ZM23.4375 52.625C26.7188 57.3125 32.1875 62 40 62C47.6562 62 53.125 57.3125 56.4062 52.625C56.7188 52 57.5 51.8438 58.125 52.3125C58.75 52.625 58.9062 53.4062 58.4375 54.0312C55 59.0312 48.75 64.5 40 64.5C31.0938 64.5 24.8438 59.0312 21.4062 54.0312C20.9375 53.4062 21.0938 52.625 21.7188 52.3125C22.3438 51.8438 23.125 52 23.4375 52.625ZM23.5938 31.0625C22.3438 32.9375 21.5625 35.125 21.0938 37.3125C21.0938 37.9375 20.3125 38.4062 19.6875 38.25C19.0625 38.25 18.5938 37.4688 18.75 36.8438C19.0625 34.5 20 31.8438 21.4062 29.6562C22.8125 27.625 24.8438 25.75 27.5 25.75C30 25.75 32.0312 27.625 33.4375 29.6562C34.8438 31.8438 35.7812 34.5 36.0938 36.8438C36.25 37.4688 35.7812 38.25 35.1562 38.25C34.5312 38.4062 33.9062 37.9375 33.75 37.3125C33.2812 35.125 32.5 32.9375 31.4062 31.0625C30.1562 29.3438 28.75 28.25 27.5 28.25C26.0938 28.25 24.6875 29.3438 23.5938 31.0625ZM46.0938 37.3125C46.0938 37.9375 45.3125 38.4062 44.6875 38.25C44.0625 38.25 43.5938 37.4688 43.75 36.8438C44.0625 34.5 45 31.8438 46.4062 29.6562C47.8125 27.625 49.8438 25.75 52.5 25.75C55 25.75 57.0312 27.625 58.4375 29.6562C59.8438 31.8438 60.7812 34.5 61.0938 36.8438C61.25 37.4688 60.7812 38.25 60.1562 38.25C59.5312 38.4062 58.9062 37.9375 58.75 37.3125C58.2812 35.125 57.5 32.9375 56.4062 31.0625C55.1562 29.3438 53.75 28.25 52.5 28.25C51.0938 28.25 49.6875 29.3438 48.5938 31.0625C47.3438 32.9375 46.5625 35.125 46.25 37.3125H46.0938Z" fill="#FADD37"/>
</svg>
