<svg width="80" height="84" viewBox="0 0 80 84" fill="none" xmlns="http://www.w3.org/2000/svg">
<path d="M77.5 42C77.5 28.7188 70.3125 16.375 58.75 9.65625C47.0312 2.9375 32.8125 2.9375 21.25 9.65625C9.53125 16.375 2.5 28.7188 2.5 42C2.5 55.4375 9.53125 67.7812 21.25 74.5C32.8125 81.2188 47.0312 81.2188 58.75 74.5C70.3125 67.7812 77.5 55.4375 77.5 42ZM0 42C0 27.7812 7.5 14.6562 20 7.46875C32.3438 0.28125 47.5 0.28125 60 7.46875C72.3438 14.6562 80 27.7812 80 42C80 56.375 72.3438 69.5 60 76.6875C47.5 83.875 32.3438 83.875 20 76.6875C7.5 69.5 0 56.375 0 42ZM32.5 63.25H47.5C48.125 63.25 48.75 63.875 48.75 64.5C48.75 65.2812 48.125 65.75 47.5 65.75H32.5C31.7188 65.75 31.25 65.2812 31.25 64.5C31.25 63.875 31.7188 63.25 32.5 63.25ZM54.8438 49.5C57.1875 49.5 59.5312 48.25 61.25 45.2812C61.5625 44.6562 62.3438 44.3438 62.9688 44.6562C63.5938 45.125 63.75 45.75 63.4375 46.375C61.4062 50.125 58.2812 52 54.8438 52C51.5625 52 48.2812 50.125 46.25 46.375C45.9375 45.75 46.0938 45.125 46.7188 44.6562C47.3438 44.3438 48.125 44.6562 48.4375 45.2812C50.1562 48.25 52.6562 49.5 54.8438 49.5ZM18.4375 45.2812C20.1562 48.25 22.6562 49.5 24.8438 49.5C27.1875 49.5 29.5312 48.25 31.25 45.2812C31.5625 44.6562 32.3438 44.3438 32.9688 44.6562C33.5938 45.125 33.75 45.75 33.4375 46.375C31.4062 50.125 28.2812 52 24.8438 52C21.5625 52 18.2812 50.125 16.25 46.375C15.9375 45.75 16.0938 45.125 16.7188 44.6562C17.3438 44.3438 18.125 44.6562 18.4375 45.2812ZM12.5 36.2188C12.1875 35.5938 12.6562 34.9688 13.2812 34.6562L16.4062 33.4062C20.625 31.8438 24.0625 29.0312 26.25 25.125L27.6562 22.625C27.9688 22.1562 28.75 21.8438 29.375 22.1562C29.8438 22.625 30.1562 23.4062 29.8438 23.875L28.2812 26.375C25.9375 30.75 22.0312 34.0312 17.3438 35.75L14.0625 37C13.4375 37.3125 12.8125 36.8438 12.5 36.2188ZM66.5625 34.6562C67.1875 34.9688 67.6562 35.5938 67.3438 36.2188C67.1875 36.8438 66.4062 37.1562 65.7812 37L62.5 35.75C57.8125 34.0312 53.9062 30.75 51.5625 26.375L50.1562 23.875C49.6875 23.4062 50 22.625 50.625 22.3125C51.25 21.8438 51.875 22.1562 52.3438 22.7812L53.75 25.125C55.9375 29.0312 59.2188 31.8438 63.4375 33.4062L66.5625 34.6562Z" fill="#53656F"/>
</svg>
