<svg width="1420" height="24" viewBox="0 0 1420 24" fill="none" xmlns="http://www.w3.org/2000/svg">
<path d="M-16.5859 25.5859L7.41406 1.58594" stroke="#FADD37" stroke-width="4"/>
<path d="M-4.58594 25.5859L19.4141 1.58594" stroke="#FADD37" stroke-width="4"/>
<path d="M7.41406 25.5859L31.4141 1.58594" stroke="#FADD37" stroke-width="4"/>
<path d="M19.4141 25.5859L43.4141 1.58594" stroke="#FADD37" stroke-width="4"/>
<path d="M31.4141 25.5859L55.4141 1.58594" stroke="#FADD37" stroke-width="4"/>
<path d="M43.4141 25.5859L67.4141 1.58594" stroke="#FADD37" stroke-width="4"/>
<path d="M55.4141 25.5859L79.4141 1.58594" stroke="#FADD37" stroke-width="4"/>
<path d="M67.4141 25.5859L91.4141 1.58594" stroke="#FADD37" stroke-width="4"/>
<path d="M79.4141 25.5859L103.414 1.58594" stroke="#FADD37" stroke-width="4"/>
<path d="M91.4141 25.5859L115.414 1.58594" stroke="#FADD37" stroke-width="4"/>
<path d="M103.414 25.5859L127.414 1.58594" stroke="#FADD37" stroke-width="4"/>
<path d="M115.414 25.5859L139.414 1.58594" stroke="#FADD37" stroke-width="4"/>
<path d="M127.414 25.5859L151.414 1.58594" stroke="#FADD37" stroke-width="4"/>
<path d="M139.414 25.5859L163.414 1.58594" stroke="#FADD37" stroke-width="4"/>
<path d="M151.414 25.5859L175.414 1.58594" stroke="#FADD37" stroke-width="4"/>
<path d="M163.414 25.5859L187.414 1.58594" stroke="#FADD37" stroke-width="4"/>
<path d="M175.414 25.5859L199.414 1.58594" stroke="#FADD37" stroke-width="4"/>
<path d="M187.414 25.5859L211.414 1.58594" stroke="#FADD37" stroke-width="4"/>
<path d="M199.414 25.5859L223.414 1.58594" stroke="#FADD37" stroke-width="4"/>
<path d="M211.414 25.5859L235.414 1.58594" stroke="#FADD37" stroke-width="4"/>
<path d="M223.414 25.5859L247.414 1.58594" stroke="#FADD37" stroke-width="4"/>
<path d="M235.414 25.5859L259.414 1.58594" stroke="#FADD37" stroke-width="4"/>
<path d="M247.414 25.5859L271.414 1.58594" stroke="#FADD37" stroke-width="4"/>
<path d="M259.414 25.5859L283.414 1.58594" stroke="#FADD37" stroke-width="4"/>
<path d="M271.414 25.5859L295.414 1.58594" stroke="#FADD37" stroke-width="4"/>
<path d="M283.414 25.5859L307.414 1.58594" stroke="#FADD37" stroke-width="4"/>
<path d="M295.414 25.5859L319.414 1.58594" stroke="#FADD37" stroke-width="4"/>
<path d="M307.414 25.5859L331.414 1.58594" stroke="#FADD37" stroke-width="4"/>
<path d="M319.414 25.5859L343.414 1.58594" stroke="#FADD37" stroke-width="4"/>
<path d="M331.414 25.5859L355.414 1.58594" stroke="#FADD37" stroke-width="4"/>
<path d="M343.414 25.5859L367.414 1.58594" stroke="#FADD37" stroke-width="4"/>
<path d="M355.414 25.5859L379.414 1.58594" stroke="#FADD37" stroke-width="4"/>
<path d="M367.414 25.5859L391.414 1.58594" stroke="#FADD37" stroke-width="4"/>
<path d="M379.414 25.5859L403.414 1.58594" stroke="#FADD37" stroke-width="4"/>
<path d="M391.414 25.5859L415.414 1.58594" stroke="#FADD37" stroke-width="4"/>
<path d="M403.414 25.5859L427.414 1.58594" stroke="#FADD37" stroke-width="4"/>
<path d="M415.414 25.5859L439.414 1.58594" stroke="#FADD37" stroke-width="4"/>
<path d="M427.414 25.5859L451.414 1.58594" stroke="#FADD37" stroke-width="4"/>
<path d="M439.414 25.5859L463.414 1.58594" stroke="#FADD37" stroke-width="4"/>
<path d="M451.414 25.5859L475.414 1.58594" stroke="#FADD37" stroke-width="4"/>
<path d="M463.414 25.5859L487.414 1.58594" stroke="#FADD37" stroke-width="4"/>
<path d="M475.414 25.5859L499.414 1.58594" stroke="#FADD37" stroke-width="4"/>
<path d="M487.414 25.5859L511.414 1.58594" stroke="#FADD37" stroke-width="4"/>
<path d="M499.414 25.5859L523.414 1.58594" stroke="#FADD37" stroke-width="4"/>
<path d="M511.414 25.5859L535.414 1.58594" stroke="#FADD37" stroke-width="4"/>
<path d="M523.414 25.5859L547.414 1.58594" stroke="#FADD37" stroke-width="4"/>
<path d="M535.414 25.5859L559.414 1.58594" stroke="#FADD37" stroke-width="4"/>
<path d="M547.414 25.5859L571.414 1.58594" stroke="#FADD37" stroke-width="4"/>
<path d="M559.414 25.5859L583.414 1.58594" stroke="#FADD37" stroke-width="4"/>
<path d="M571.414 25.5859L595.414 1.58594" stroke="#FADD37" stroke-width="4"/>
<path d="M583.414 25.5859L607.414 1.58594" stroke="#FADD37" stroke-width="4"/>
<path d="M595.414 25.5859L619.414 1.58594" stroke="#FADD37" stroke-width="4"/>
<path d="M607.414 25.5859L631.414 1.58594" stroke="#FADD37" stroke-width="4"/>
<path d="M619.414 25.5859L643.414 1.58594" stroke="#FADD37" stroke-width="4"/>
<path d="M631.414 25.5859L655.414 1.58594" stroke="#FADD37" stroke-width="4"/>
<path d="M643.414 25.5859L667.414 1.58594" stroke="#FADD37" stroke-width="4"/>
<path d="M655.414 25.5859L679.414 1.58594" stroke="#FADD37" stroke-width="4"/>
<path d="M667.414 25.5859L691.414 1.58594" stroke="#FADD37" stroke-width="4"/>
<path d="M679.414 25.5859L703.414 1.58594" stroke="#FADD37" stroke-width="4"/>
<path d="M691.414 25.5859L715.414 1.58594" stroke="#FADD37" stroke-width="4"/>
<path d="M703.414 25.5859L727.414 1.58594" stroke="#FADD37" stroke-width="4"/>
<path d="M715.414 25.5859L739.414 1.58594" stroke="#FADD37" stroke-width="4"/>
<path d="M727.414 25.5859L751.414 1.58594" stroke="#FADD37" stroke-width="4"/>
<path d="M739.414 25.5859L763.414 1.58594" stroke="#FADD37" stroke-width="4"/>
<path d="M751.414 25.5859L775.414 1.58594" stroke="#FADD37" stroke-width="4"/>
<path d="M763.414 25.5859L787.414 1.58594" stroke="#FADD37" stroke-width="4"/>
<path d="M775.414 25.5859L799.414 1.58594" stroke="#FADD37" stroke-width="4"/>
<path d="M787.414 25.5859L811.414 1.58594" stroke="#FADD37" stroke-width="4"/>
<path d="M799.414 25.5859L823.414 1.58594" stroke="#FADD37" stroke-width="4"/>
<path d="M811.414 25.5859L835.414 1.58594" stroke="#FADD37" stroke-width="4"/>
<path d="M823.414 25.5859L847.414 1.58594" stroke="#FADD37" stroke-width="4"/>
<path d="M835.414 25.5859L859.414 1.58594" stroke="#FADD37" stroke-width="4"/>
<path d="M847.414 25.5859L871.414 1.58594" stroke="#FADD37" stroke-width="4"/>
<path d="M859.414 25.5859L883.414 1.58594" stroke="#FADD37" stroke-width="4"/>
<path d="M871.414 25.5859L895.414 1.58594" stroke="#FADD37" stroke-width="4"/>
<path d="M883.414 25.5859L907.414 1.58594" stroke="#FADD37" stroke-width="4"/>
<path d="M895.414 25.5859L919.414 1.58594" stroke="#FADD37" stroke-width="4"/>
<path d="M907.414 25.5859L931.414 1.58594" stroke="#FADD37" stroke-width="4"/>
<path d="M919.414 25.5859L943.414 1.58594" stroke="#FADD37" stroke-width="4"/>
<path d="M931.414 25.5859L955.414 1.58594" stroke="#FADD37" stroke-width="4"/>
<path d="M943.414 25.5859L967.414 1.58594" stroke="#FADD37" stroke-width="4"/>
<path d="M955.414 25.5859L979.414 1.58594" stroke="#FADD37" stroke-width="4"/>
<path d="M967.414 25.5859L991.414 1.58594" stroke="#FADD37" stroke-width="4"/>
<path d="M979.414 25.5859L1003.41 1.58594" stroke="#FADD37" stroke-width="4"/>
<path d="M991.414 25.5859L1015.41 1.58594" stroke="#FADD37" stroke-width="4"/>
<path d="M1003.41 25.5859L1027.41 1.58594" stroke="#FADD37" stroke-width="4"/>
<path d="M1015.41 25.5859L1039.41 1.58594" stroke="#FADD37" stroke-width="4"/>
<path d="M1027.41 25.5859L1051.41 1.58594" stroke="#FADD37" stroke-width="4"/>
<path d="M1039.41 25.5859L1063.41 1.58594" stroke="#FADD37" stroke-width="4"/>
<path d="M1051.41 25.5859L1075.41 1.58594" stroke="#FADD37" stroke-width="4"/>
<path d="M1063.41 25.5859L1087.41 1.58594" stroke="#FADD37" stroke-width="4"/>
<path d="M1075.41 25.5859L1099.41 1.58594" stroke="#FADD37" stroke-width="4"/>
<path d="M1087.41 25.5859L1111.41 1.58594" stroke="#FADD37" stroke-width="4"/>
<path d="M1099.41 25.5859L1123.41 1.58594" stroke="#FADD37" stroke-width="4"/>
<path d="M1111.41 25.5859L1135.41 1.58594" stroke="#FADD37" stroke-width="4"/>
<path d="M1123.41 25.5859L1147.41 1.58594" stroke="#FADD37" stroke-width="4"/>
<path d="M1135.41 25.5859L1159.41 1.58594" stroke="#FADD37" stroke-width="4"/>
<path d="M1147.41 25.5859L1171.41 1.58594" stroke="#FADD37" stroke-width="4"/>
<path d="M1159.41 25.5859L1183.41 1.58594" stroke="#FADD37" stroke-width="4"/>
<path d="M1171.41 25.5859L1195.41 1.58594" stroke="#FADD37" stroke-width="4"/>
<path d="M1183.41 25.5859L1207.41 1.58594" stroke="#FADD37" stroke-width="4"/>
<path d="M1195.41 25.5859L1219.41 1.58594" stroke="#FADD37" stroke-width="4"/>
<path d="M1207.41 25.5859L1231.41 1.58594" stroke="#FADD37" stroke-width="4"/>
<path d="M1219.41 25.5859L1243.41 1.58594" stroke="#FADD37" stroke-width="4"/>
<path d="M1231.41 25.5859L1255.41 1.58594" stroke="#FADD37" stroke-width="4"/>
<path d="M1243.41 25.5859L1267.41 1.58594" stroke="#FADD37" stroke-width="4"/>
<path d="M1255.41 25.5859L1279.41 1.58594" stroke="#FADD37" stroke-width="4"/>
<path d="M1267.41 25.5859L1291.41 1.58594" stroke="#FADD37" stroke-width="4"/>
<path d="M1279.41 25.5859L1303.41 1.58594" stroke="#FADD37" stroke-width="4"/>
<path d="M1291.41 25.5859L1315.41 1.58594" stroke="#FADD37" stroke-width="4"/>
<path d="M1303.41 25.5859L1327.41 1.58594" stroke="#FADD37" stroke-width="4"/>
<path d="M1315.41 25.5859L1339.41 1.58594" stroke="#FADD37" stroke-width="4"/>
<path d="M1327.41 25.5859L1351.41 1.58594" stroke="#FADD37" stroke-width="4"/>
<path d="M1339.41 25.5859L1363.41 1.58594" stroke="#FADD37" stroke-width="4"/>
<path d="M1351.41 25.5859L1375.41 1.58594" stroke="#FADD37" stroke-width="4"/>
<path d="M1363.41 25.5859L1387.41 1.58594" stroke="#FADD37" stroke-width="4"/>
<path d="M1375.41 25.5859L1399.41 1.58594" stroke="#FADD37" stroke-width="4"/>
<path d="M1387.41 25.5859L1411.41 1.58594" stroke="#FADD37" stroke-width="4"/>
<path d="M1399.41 25.5859L1423.41 1.58594" stroke="#FADD37" stroke-width="4"/>
<path d="M1411.41 25.5859L1435.41 1.58594" stroke="#FADD37" stroke-width="4"/>
</svg>
