<svg width="560" height="198" viewBox="0 0 560 198" fill="none" xmlns="http://www.w3.org/2000/svg">
<path opacity="0.201" d="M150.03 67.1963C157.608 66.7273 226.013 67.1963 226.013 67.1963V0.227539H129.107C129.107 0.227539 61.5913 0.602791 36.2953 41.3838C10.9833 82.1498 2.63893 120.447 1.43593 157.806C0.263928 195.15 1.43593 267.337 1.43593 267.337C1.43593 267.337 -1.98607 333.367 24.6859 367.774C51.3579 402.165 74.9521 426.743 123.139 428.696C171.295 430.665 298.406 428.696 298.406 428.696V183.619H150.031V249.135H204.281V361.854H150.031C150.031 361.854 127.483 362.448 115.374 348.088C103.265 333.744 98.1744 311.526 96.8744 293.932C95.5934 276.37 92.2184 173.948 96.8744 138.791C101.53 103.65 106.062 91.0251 115.374 81.2441C124.669 71.4781 142.42 67.6493 150.03 67.1963Z" fill="white"/>
<path opacity="0.201" d="M639.936 67.1963C632.342 66.7273 563.919 67.1963 563.919 67.1963V0.227539H660.873C660.873 0.227539 728.373 0.602791 753.686 41.3838C778.986 82.1498 787.327 120.447 788.499 157.806C789.687 195.15 788.499 267.337 788.499 267.337C788.499 267.337 791.952 333.367 765.265 367.774C738.593 402.165 714.999 426.743 666.828 428.696C618.628 430.665 491.562 428.696 491.562 428.696V116.713H585.687V361.854H639.937C639.937 361.854 662.468 362.448 674.593 348.088C686.702 333.744 691.793 311.526 693.077 293.932C694.343 276.37 697.718 173.948 693.077 138.791C688.421 103.65 683.89 91.0251 674.593 81.2441C665.283 71.4781 647.536 67.6493 639.936 67.1963Z" fill="white"/>
<path opacity="0.201" d="M246.372 0.230469H542.341V66.4971H437.825V429.31H350.466V66.498H246.372V0.230469Z" fill="white"/>
</svg>
