<svg width="198" height="150" viewBox="0 0 198 150" fill="none" xmlns="http://www.w3.org/2000/svg">
<path opacity="0.201" d="M51.8633 23.2923C54.4989 23.1291 78.2909 23.2923 78.2909 23.2923V0H44.5861C44.5861 0 21.1037 0.130516 12.3055 14.3145C3.50182 28.4932 0.599582 41.8132 0.181169 54.8069C-0.226462 67.7955 0.181169 92.9028 0.181169 92.9028C0.181169 92.9028 -1.00903 115.869 8.2677 127.836C17.5444 139.797 25.7507 148.346 42.5105 149.025C59.2595 149.71 103.47 149.025 103.47 149.025V63.7851H51.8636V86.5719H70.7322V125.776H51.8636C51.8636 125.776 44.0215 125.983 39.8099 120.989C35.5983 116 33.8276 108.272 33.3754 102.153C32.9299 96.0444 31.756 60.4214 33.3754 48.1935C34.9948 35.9712 36.5711 31.5801 39.8099 28.1782C43.0428 24.7815 49.2164 23.4498 51.8633 23.2923Z" fill="white"/>
<path opacity="0.201" d="M222.256 23.2923C219.615 23.1291 195.817 23.2923 195.817 23.2923V0H229.538C229.538 0 253.015 0.130516 261.819 14.3145C270.619 28.4932 273.52 41.8132 273.927 54.8069C274.34 67.7955 273.927 92.9028 273.927 92.9028C273.927 92.9028 275.128 115.869 265.847 127.836C256.57 139.797 248.363 148.346 231.609 149.025C214.845 149.71 170.65 149.025 170.65 149.025V40.5145H203.388V125.776H222.256C222.256 125.776 230.093 125.983 234.31 120.989C238.522 116 240.292 108.272 240.739 102.153C241.179 96.0444 242.353 60.4214 240.739 48.1935C239.119 35.9712 237.544 31.5801 234.31 28.1782C231.072 24.7815 224.899 23.4498 222.256 23.2923Z" fill="white"/>
<path opacity="0.201" d="M85.3711 0.000976562H188.312V23.049H151.96V149.238H121.576V23.0494H85.3711V0.000976562Z" fill="white"/>
</svg>
