<svg width="12" height="13" viewBox="0 0 12 13" fill="none" xmlns="http://www.w3.org/2000/svg">
<path d="M5.92187 12.1133C6.08594 12.2773 6.38672 12.2773 6.55078 12.1133L11.3633 7.30078C11.5273 7.13672 11.5273 6.83594 11.3633 6.67187C11.1992 6.50781 10.8984 6.50781 10.7344 6.67187L6.6875 10.7461L6.6875 0.4375C6.6875 0.191406 6.46875 -2.8549e-07 6.25 -2.95052e-07C6.00391 -3.05809e-07 5.8125 0.191406 5.8125 0.4375L5.8125 10.7461L1.73828 6.67187C1.57422 6.50781 1.27344 6.50781 1.10937 6.67187C0.945312 6.83594 0.945312 7.13672 1.10937 7.30078L5.92187 12.1133Z" fill="#2F2F2F"/>
</svg>
